<svg width="37" height="41" viewBox="0 0 37 41" fill="none" xmlns="http://www.w3.org/2000/svg">
<mask id="mask0" style="mask-type:alpha" maskUnits="userSpaceOnUse" x="0" y="0" width="37" height="41">
<path d="M20.4716 40H17.0263C16.6442 40 16.2702 39.8906 15.9483 39.6847L1.92207 30.71C1.34757 30.3424 1 29.7074 1 29.0253V11.9747C1 11.2926 1.34757 10.6576 1.92208 10.29L15.9483 1.31534C16.2702 1.10943 16.6442 1 17.0263 1H20.42C20.8447 1 21.2582 1.13514 21.6009 1.38585L35.1809 11.3208C35.6957 11.6974 36 12.297 36 12.9349V29.0454C36 29.7164 35.6635 30.3428 35.1039 30.7131L21.5755 39.6678C21.2481 39.8844 20.8642 40 20.4716 40Z" fill="#C4C4C4" stroke="black"/>
</mask>
<g mask="url(#mask0)">
<path d="M46.252 28.0508C42.9127 41.4453 29.3462 49.5969 15.9501 46.2568C2.55965 42.9175 -5.59198 29.3502 -2.2512 15.9567C1.08664 2.56078 14.6531 -5.59147 28.045 -2.25216C41.4402 1.08715 49.5913 14.6559 46.2516 28.051L46.2519 28.0508H46.252Z" fill="#F7931A"/>
<path d="M27.9478 18.4519C28.3638 15.7199 26.2459 14.2514 23.3498 13.2717L24.2894 9.57098L21.9955 9.00964L21.0809 12.6129C20.4779 12.4652 19.8586 12.326 19.2431 12.1881L20.1643 8.561L17.8719 7.99967L16.9319 11.6992C16.4329 11.5876 15.9427 11.4773 15.4672 11.3611L15.4699 11.3495L12.3066 10.5737L11.6964 12.9798C11.6964 12.9798 13.3982 13.3629 13.3624 13.3865C14.2913 13.6142 14.4592 14.2181 14.4313 14.6967L13.3612 18.9127C13.4251 18.9287 13.5081 18.9517 13.5996 18.9879C13.5231 18.9692 13.4417 18.9488 13.3572 18.929L11.8571 24.835C11.7436 25.1121 11.4555 25.528 10.806 25.3701C10.829 25.4028 9.13885 24.9615 9.13885 24.9615L8 27.5402L10.9851 28.271C11.5404 28.4077 12.0846 28.5508 12.6205 28.6854L11.6713 32.4286L13.9625 32.9899L14.9025 29.2865C15.5284 29.4533 16.1358 29.6073 16.7305 29.7524L15.7937 33.4383L18.0876 33.9997L19.0367 30.2635C22.9482 30.9905 25.8893 30.6974 27.1273 27.2229C28.1248 24.4255 27.0776 22.8119 25.0198 21.7597C26.5186 21.4202 27.6476 20.4521 27.9486 18.4522L27.9479 18.4517L27.9478 18.4519ZM22.7069 25.6693C21.998 28.4667 17.202 26.9545 15.6471 26.5753L16.9068 21.6163C18.4616 21.9975 23.4477 22.7519 22.707 25.6693H22.7069ZM23.4163 18.4114C22.7696 20.9559 18.7779 19.6632 17.483 19.3462L18.625 14.8486C19.9199 15.1656 24.0899 15.7572 23.4165 18.4114H23.4163Z" fill="white"/>
</g>
</svg>
