<svg width="19" height="19" viewBox="0 0 19 19" fill="none" xmlns="http://www.w3.org/2000/svg">
<mask id="mask0" style="mask-type:alpha" maskUnits="userSpaceOnUse" x="-1" y="0" width="20" height="19">
<circle cx="9.49976" cy="9.5" r="9.5" fill="#C4C4C4"/>
</mask>
<g mask="url(#mask0)">
<path d="M18.7155 12.3121C17.4466 17.402 12.2913 20.4996 7.2008 19.2303C2.11242 17.9614 -0.985195 12.8058 0.284299 7.71632C1.55268 2.62585 6.70793 -0.471998 11.7969 0.796939C16.887 2.06588 19.9844 7.22201 18.7154 12.3122L18.7155 12.3121H18.7155Z" fill="#F7931A"/>
<path d="M13.6999 8.64798C13.889 7.38359 12.9263 6.70394 11.61 6.25054L12.0371 4.53782L10.9945 4.27803L10.5788 5.94566C10.3047 5.8773 10.0232 5.81289 9.74346 5.74903L10.1622 4.0704L9.12023 3.81061L8.69298 5.52277C8.46616 5.47113 8.24339 5.42009 8.02726 5.36632L8.02846 5.36093L6.59072 5.0019L6.31337 6.11545C6.31337 6.11545 7.08689 6.29275 7.07058 6.30367C7.49277 6.40904 7.56912 6.68852 7.55644 6.91004L7.07003 8.86123C7.0991 8.86862 7.13681 8.8793 7.17842 8.89602C7.14364 8.88738 7.10662 8.87795 7.06822 8.86876L6.38642 11.6021C6.33483 11.7304 6.20387 11.9229 5.90869 11.8498C5.91914 11.8649 5.15093 11.6607 5.15093 11.6607L4.6333 12.8541L5.99006 13.1923C6.24246 13.2556 6.4898 13.3218 6.73338 13.3841L6.30195 15.1165L7.34333 15.3763L7.77058 13.6623C8.05507 13.7395 8.33116 13.8108 8.60145 13.8779L8.17563 15.5838L9.21827 15.8436L9.64965 14.1145C11.4275 14.4509 12.7643 14.3153 13.3269 12.7072C13.7803 11.4126 13.3044 10.6658 12.3691 10.1788C13.0503 10.0217 13.5634 9.57368 13.7002 8.64812L13.6999 8.64789L13.6999 8.64798ZM11.3178 11.9883C10.9956 13.2829 8.81577 12.5831 8.10904 12.4076L8.68155 10.1125C9.38824 10.2889 11.6545 10.638 11.3178 11.9883H11.3178ZM11.6402 8.62922C11.3463 9.80685 9.53202 9.20856 8.94348 9.06186L9.46254 6.98035C10.0511 7.12706 11.9464 7.40087 11.6403 8.62922H11.6402Z" fill="white"/>
</g>
</svg>
