<svg width="38" height="38" viewBox="0 0 38 38" fill="none" xmlns="http://www.w3.org/2000/svg">
<circle cx="19" cy="19" r="19" fill="#F3F7F9"/>
<mask id="mask0" style="mask-type:alpha" maskUnits="userSpaceOnUse" x="6" y="6" width="25" height="25">
<circle cx="18.5" cy="18.5" r="12.5" fill="#C4C4C4"/>
</mask>
<g mask="url(#mask0)">
<path d="M26.107 9.65881H29.1033L22.8676 15.8232C20.6094 18.0544 16.9482 18.0544 14.6883 15.8232L8.4502 9.65881H11.449L16.1865 14.3415C16.8768 15.0208 17.807 15.4015 18.7762 15.4015C19.7453 15.4015 20.6755 15.0208 21.3658 14.3415L26.107 9.65881Z" fill="#23292F"/>
<path d="M11.4344 26.7996H8.43604L14.7122 20.5972C16.9705 18.366 20.6317 18.366 22.8915 20.5972L29.1677 26.7996H26.1714L21.3934 22.0789C20.7031 21.3996 19.7729 21.0189 18.8037 21.0189C17.8346 21.0189 16.9043 21.3996 16.2141 22.0789L11.4344 26.7996Z" fill="#23292F"/>
</g>
</svg>
