<svg width="31" height="36" viewBox="0 0 31 36" fill="none" xmlns="http://www.w3.org/2000/svg">
<path d="M22.2813 0C22.1532 0.000231236 22.0304 0.0525253 21.9398 0.145439L20.0045 2.13136C19.9141 2.22441 19.8634 2.35044 19.8634 2.48181C19.8634 2.61319 19.9141 2.73921 20.0045 2.83227L24.0209 6.9583H0.484402C0.356023 6.95861 0.232988 7.01108 0.14221 7.10423C0.0514322 7.19738 0.000300654 7.32363 0 7.45537L0 10.4377C0.000300654 10.5695 0.0514322 10.6957 0.14221 10.7889C0.232988 10.882 0.356023 10.9345 0.484402 10.9348H24.0209L20.0039 15.0568C19.9135 15.1498 19.8628 15.2758 19.8628 15.4072C19.8628 15.5386 19.9135 15.6646 20.0039 15.7577L21.9392 17.7436C22.03 17.8362 22.1528 17.8882 22.2808 17.8882C22.4088 17.8882 22.5315 17.8362 22.6223 17.7436L30.8583 9.29818C30.9486 9.20512 30.9994 9.0791 30.9994 8.94772C30.9994 8.81635 30.9486 8.69033 30.8583 8.59727L22.6234 0.145439C22.5327 0.0523825 22.4096 7.67014e-05 22.2813 0ZM22.2813 1.19973L29.8308 8.94656L22.2813 16.6934L21.0291 15.4084L25.5304 10.7894C25.5979 10.7198 25.6438 10.6313 25.6624 10.5351C25.681 10.4388 25.6714 10.3391 25.6349 10.2484C25.5984 10.1577 25.5366 10.0801 25.4572 10.0253C25.3779 9.97058 25.2845 9.94113 25.1889 9.94068H0.967665V7.95477H25.1877C25.2834 7.95432 25.3767 7.92487 25.4561 7.87012C25.5355 7.81537 25.5973 7.73776 25.6338 7.64706C25.6703 7.55636 25.6798 7.45661 25.6612 7.36036C25.6426 7.2641 25.5967 7.17563 25.5293 7.10608L21.0279 2.48707L22.2813 1.19973ZM0.484402 11.9289C0.356023 11.9292 0.232988 11.9817 0.14221 12.0749C0.0514322 12.168 0.000300654 12.2943 0 12.426L0 13.419C0.00602931 13.5465 0.0596364 13.6667 0.149712 13.7548C0.239787 13.8428 0.359425 13.8919 0.483832 13.8919C0.60824 13.8919 0.727877 13.8428 0.817953 13.7548C0.908028 13.6667 0.961636 13.5465 0.967665 13.419V12.426C0.967366 12.2945 0.916391 12.1684 0.825859 12.0753C0.735326 11.9822 0.612583 11.9296 0.484402 11.9289ZM2.90641 11.9289C2.77803 11.9292 2.655 11.9817 2.56422 12.0749C2.47344 12.168 2.42231 12.2943 2.42201 12.426V13.419C2.41883 13.4862 2.42899 13.5534 2.45187 13.6164C2.47475 13.6795 2.50987 13.7372 2.55512 13.7859C2.60036 13.8346 2.65477 13.8734 2.71506 13.8999C2.77535 13.9264 2.84025 13.9401 2.90584 13.9401C2.97143 13.9401 3.03634 13.9264 3.09662 13.8999C3.15691 13.8734 3.21133 13.8346 3.25657 13.7859C3.30181 13.7372 3.33693 13.6795 3.35981 13.6164C3.38269 13.5534 3.39285 13.4862 3.38967 13.419V12.426C3.38937 12.2945 3.3384 12.1684 3.24787 12.0753C3.15733 11.9822 3.03459 11.9296 2.90641 11.9289ZM5.32842 11.9289C5.20004 11.9292 5.077 11.9817 4.98623 12.0749C4.89545 12.168 4.84432 12.2943 4.84402 12.426V13.419C4.84084 13.4862 4.851 13.5534 4.87388 13.6164C4.89676 13.6795 4.93188 13.7372 4.97712 13.7859C5.02236 13.8346 5.07678 13.8734 5.13707 13.8999C5.19735 13.9264 5.26226 13.9401 5.32785 13.9401C5.39344 13.9401 5.45834 13.9264 5.51863 13.8999C5.57892 13.8734 5.63333 13.8346 5.67857 13.7859C5.72382 13.7372 5.75894 13.6795 5.78182 13.6164C5.8047 13.5534 5.81486 13.4862 5.81168 13.419V12.426C5.81138 12.2944 5.76033 12.1682 5.66967 12.0751C5.57902 11.9819 5.45613 11.9294 5.32785 11.9289H5.32842ZM7.75043 11.9289C7.62205 11.9292 7.49901 11.9817 7.40824 12.0749C7.31746 12.168 7.26633 12.2943 7.26603 12.426V13.419C7.27205 13.5465 7.32566 13.6667 7.41574 13.7548C7.50581 13.8428 7.62545 13.8919 7.74986 13.8919C7.87426 13.8919 7.9939 13.8428 8.08398 13.7548C8.17405 13.6667 8.22766 13.5465 8.23369 13.419V12.426C8.23339 12.2944 8.18234 12.1682 8.09168 12.0751C8.00103 11.9819 7.87814 11.9294 7.74986 11.9289H7.75043ZM10.1724 11.9289C10.0441 11.9292 9.92102 11.9817 9.83024 12.0749C9.73947 12.168 9.68833 12.2943 9.68803 12.426V13.419C9.68485 13.4862 9.69501 13.5534 9.71789 13.6164C9.74077 13.6795 9.7759 13.7372 9.82114 13.7859C9.86638 13.8346 9.92079 13.8734 9.98108 13.8999C10.0414 13.9264 10.1063 13.9401 10.1719 13.9401C10.2375 13.9401 10.3024 13.9264 10.3626 13.8999C10.4229 13.8734 10.4774 13.8346 10.5226 13.7859C10.5678 13.7372 10.603 13.6795 10.6258 13.6164C10.6487 13.5534 10.6589 13.4862 10.6557 13.419V12.426C10.6554 12.2944 10.6043 12.1682 10.5137 12.0751C10.423 11.9819 10.3001 11.9294 10.1719 11.9289H10.1724ZM12.5944 11.9289C12.4661 11.9292 12.343 11.9817 12.2523 12.0749C12.1615 12.168 12.1103 12.2943 12.11 12.426V13.419C12.1161 13.5465 12.1697 13.6667 12.2598 13.7548C12.3498 13.8428 12.4695 13.8919 12.5939 13.8919C12.7183 13.8919 12.8379 13.8428 12.928 13.7548C13.0181 13.6667 13.0717 13.5465 13.0777 13.419V12.426C13.0774 12.2944 13.0264 12.1682 12.9357 12.0751C12.845 11.9819 12.7222 11.9294 12.5939 11.9289H12.5944ZM15.0165 11.9289C14.8881 11.9292 14.765 11.9817 14.6743 12.0749C14.5835 12.168 14.5324 12.2943 14.5321 12.426V13.419C14.5381 13.5465 14.5917 13.6667 14.6818 13.7548C14.7718 13.8428 14.8915 13.8919 15.0159 13.8919C15.1403 13.8919 15.2599 13.8428 15.35 13.7548C15.4401 13.6667 15.4937 13.5465 15.4997 13.419V12.426C15.4994 12.2944 15.4484 12.1682 15.3577 12.0751C15.2671 11.9819 15.1442 11.9294 15.0159 11.9289H15.0165ZM17.4385 11.9289C17.3101 11.9292 17.187 11.9817 17.0963 12.0749C17.0055 12.168 16.9544 12.2943 16.9541 12.426V13.419C16.9601 13.5465 17.0137 13.6667 17.1038 13.7548C17.1938 13.8428 17.3135 13.8919 17.4379 13.8919C17.5623 13.8919 17.6819 13.8428 17.772 13.7548C17.8621 13.6667 17.9157 13.5465 17.9217 13.419V12.426C17.9214 12.2943 17.8703 12.168 17.7795 12.0749C17.6887 11.9817 17.5657 11.9292 17.4373 11.9289H17.4385ZM19.8605 11.9289C19.7321 11.9292 19.6091 11.9817 19.5183 12.0749C19.4275 12.168 19.3764 12.2943 19.3761 12.426V13.419C19.3729 13.4862 19.383 13.5534 19.4059 13.6164C19.4288 13.6795 19.4639 13.7372 19.5092 13.7859C19.5544 13.8346 19.6088 13.8734 19.6691 13.8999C19.7294 13.9264 19.7943 13.9401 19.8599 13.9401C19.9255 13.9401 19.9904 13.9264 20.0507 13.8999C20.111 13.8734 20.1654 13.8346 20.2106 13.7859C20.2559 13.7372 20.291 13.6795 20.3139 13.6164C20.3368 13.5534 20.3469 13.4862 20.3437 13.419V12.426C20.3434 12.2943 20.2923 12.168 20.2015 12.0749C20.1107 11.9817 19.9877 11.9292 19.8593 11.9289H19.8605Z" fill="white"/>
<path d="M8.71878 18.1069C8.84689 18.1072 8.96969 18.1595 9.06031 18.2524L10.9956 20.2383C11.086 20.3313 11.1368 20.4574 11.1368 20.5887C11.1368 20.7201 11.086 20.8461 10.9956 20.9392L6.97869 25.0611H30.5157C30.6441 25.0615 30.7671 25.1139 30.8579 25.2071C30.9487 25.3002 30.9998 25.4265 31.0001 25.5582V28.5447C30.9998 28.6764 30.9487 28.8027 30.8579 28.8958C30.7671 28.989 30.6441 29.0414 30.5157 29.0417H6.98211L10.9991 33.1637C11.0894 33.2567 11.1402 33.3828 11.1402 33.5141C11.1402 33.6455 11.0894 33.7715 10.9991 33.8646L9.06372 35.8505C8.97296 35.9431 8.85018 35.9951 8.72219 35.9951C8.59421 35.9951 8.47143 35.9431 8.38067 35.8505L0.141852 27.4051C0.0514779 27.3121 0.000732422 27.186 0.000732422 27.0547C0.000732422 26.9233 0.0514779 26.7973 0.141852 26.7042L8.37668 18.2524C8.46744 18.1593 8.59048 18.107 8.71878 18.1069ZM8.71878 19.3067L1.16928 27.0535L8.71878 34.8003L9.97105 33.5153L5.47027 28.8963C5.40281 28.8267 5.3569 28.7383 5.3383 28.642C5.31971 28.5458 5.32926 28.446 5.36576 28.3553C5.40226 28.2646 5.46408 28.187 5.54344 28.1323C5.62281 28.0775 5.71617 28.0481 5.8118 28.0476H30.0313V26.0617H5.81237C5.71674 26.0612 5.62337 26.0318 5.54401 25.9771C5.46465 25.9223 5.40283 25.8447 5.36633 25.754C5.32983 25.6633 5.32028 25.5635 5.33887 25.4673C5.35747 25.371 5.40338 25.2826 5.47084 25.213L9.97219 20.594L8.71878 19.3067ZM30.5157 30.0359C30.6441 30.0362 30.7671 30.0886 30.8579 30.1818C30.9487 30.2749 30.9998 30.4012 31.0001 30.5329V31.5259C30.9941 31.6534 30.9405 31.7736 30.8504 31.8617C30.7603 31.9497 30.6407 31.9989 30.5163 31.9989C30.3919 31.9989 30.2722 31.9497 30.1822 31.8617C30.0921 31.7736 30.0385 31.6534 30.0325 31.5259V30.5329C30.0328 30.4014 30.0837 30.2753 30.1743 30.1822C30.2648 30.0891 30.3875 30.0365 30.5157 30.0359ZM28.0937 30.0359C28.2221 30.0362 28.3451 30.0886 28.4359 30.1818C28.5267 30.2749 28.5778 30.4012 28.5781 30.5329V31.5259C28.5813 31.5931 28.5711 31.6603 28.5483 31.7234C28.5254 31.7865 28.4902 31.8441 28.445 31.8928C28.3998 31.9416 28.3454 31.9804 28.2851 32.0069C28.2248 32.0334 28.1599 32.047 28.0943 32.047C28.0287 32.047 27.9638 32.0334 27.9035 32.0069C27.8432 31.9804 27.7888 31.9416 27.7436 31.8928C27.6983 31.8441 27.6632 31.7865 27.6403 31.7234C27.6174 31.6603 27.6073 31.5931 27.6104 31.5259V30.5329C27.6107 30.4014 27.6617 30.2753 27.7523 30.1822C27.8428 30.0891 27.9655 30.0365 28.0937 30.0359ZM25.6717 30.0359C25.8001 30.0362 25.9231 30.0886 26.0139 30.1818C26.1047 30.2749 26.1558 30.4012 26.1561 30.5329V31.5259C26.1501 31.6534 26.0965 31.7736 26.0064 31.8617C25.9163 31.9497 25.7967 31.9989 25.6723 31.9989C25.5479 31.9989 25.4282 31.9497 25.3382 31.8617C25.2481 31.7736 25.1945 31.6534 25.1884 31.5259V30.5329C25.1887 30.4014 25.2397 30.2753 25.3302 30.1822C25.4208 30.0891 25.5435 30.0365 25.6717 30.0359ZM23.2497 30.0359C23.3781 30.0362 23.5011 30.0886 23.5919 30.1818C23.6827 30.2749 23.7338 30.4012 23.7341 30.5329V31.5259C23.7281 31.6534 23.6745 31.7736 23.5844 31.8617C23.4943 31.9497 23.3747 31.9989 23.2503 31.9989C23.1259 31.9989 23.0062 31.9497 22.9161 31.8617C22.8261 31.7736 22.7725 31.6534 22.7664 31.5259V30.5329C22.7667 30.4013 22.8178 30.2751 22.9084 30.182C22.9991 30.0889 23.122 30.0363 23.2503 30.0359H23.2497ZM20.8277 30.0359C20.9561 30.0362 21.0791 30.0886 21.1699 30.1818C21.2607 30.2749 21.3118 30.4012 21.3121 30.5329V31.5259C21.3061 31.6534 21.2524 31.7736 21.1624 31.8617C21.0723 31.9497 20.9527 31.9989 20.8283 31.9989C20.7038 31.9989 20.5842 31.9497 20.4941 31.8617C20.4041 31.7736 20.3505 31.6534 20.3444 31.5259V30.5329C20.3447 30.4013 20.3958 30.2751 20.4864 30.182C20.5771 30.0889 20.7 30.0363 20.8283 30.0359H20.8277ZM18.4057 30.0359C18.5341 30.0362 18.6571 30.0886 18.7479 30.1818C18.8386 30.2749 18.8898 30.4012 18.8901 30.5329V31.5259C18.8933 31.5931 18.8831 31.6603 18.8602 31.7234C18.8373 31.7865 18.8022 31.8441 18.757 31.8928C18.7117 31.9416 18.6573 31.9804 18.597 32.0069C18.5367 32.0334 18.4718 32.047 18.4062 32.047C18.3407 32.047 18.2757 32.0334 18.2155 32.0069C18.1552 31.9804 18.1008 31.9416 18.0555 31.8928C18.0103 31.8441 17.9752 31.7865 17.9523 31.7234C17.9294 31.6603 17.9192 31.5931 17.9224 31.5259V30.5329C17.9227 30.4013 17.9738 30.2751 18.0644 30.182C18.1551 30.0889 18.278 30.0363 18.4062 30.0359H18.4057ZM15.9837 30.0359C16.112 30.0362 16.2351 30.0886 16.3259 30.1818C16.4166 30.2749 16.4678 30.4012 16.4681 30.5329V31.5259C16.462 31.6534 16.4084 31.7736 16.3184 31.8617C16.2283 31.9497 16.1086 31.9989 15.9842 31.9989C15.8598 31.9989 15.7402 31.9497 15.6501 31.8617C15.56 31.7736 15.5064 31.6534 15.5004 31.5259V30.5329C15.5007 30.4013 15.5518 30.2751 15.6424 30.182C15.7331 30.0889 15.856 30.0363 15.9842 30.0359H15.9837ZM13.5617 30.0359C13.69 30.0362 13.8131 30.0886 13.9038 30.1818C13.9946 30.2749 14.0458 30.4012 14.0461 30.5329V31.5259C14.04 31.6534 13.9864 31.7736 13.8963 31.8617C13.8063 31.9497 13.6866 31.9989 13.5622 31.9989C13.4378 31.9989 13.3182 31.9497 13.2281 31.8617C13.138 31.7736 13.0844 31.6534 13.0784 31.5259V30.5329C13.0787 30.4012 13.1298 30.2749 13.2206 30.1818C13.3114 30.0886 13.4344 30.0362 13.5628 30.0359H13.5617ZM11.1396 30.0359C11.268 30.0362 11.3911 30.0886 11.4818 30.1818C11.5726 30.2749 11.6238 30.4012 11.6241 30.5329V31.5259C11.6272 31.5931 11.6171 31.6603 11.5942 31.7234C11.5713 31.7865 11.5362 31.8441 11.4909 31.8928C11.4457 31.9416 11.3913 31.9804 11.331 32.0069C11.2707 32.0334 11.2058 32.047 11.1402 32.047C11.0746 32.047 11.0097 32.0334 10.9494 32.0069C10.8891 31.9804 10.8347 31.9416 10.7895 31.8928C10.7443 31.8441 10.7091 31.7865 10.6862 31.7234C10.6634 31.6603 10.6532 31.5931 10.6564 31.5259V30.5329C10.6567 30.4012 10.7078 30.2749 10.7986 30.1818C10.8894 30.0886 11.0124 30.0362 11.1408 30.0359H11.1396Z" fill="white"/>
<path d="M29.8762 8.94655L22.2488 16.7191L21.0141 15.3909L25.6248 10.6866C25.6781 10.5312 25.6781 10.3618 25.6248 10.2064C25.5273 10.0765 25.3892 9.98493 25.2337 9.9471L0.962402 9.96521V7.96469L25.3481 7.94366C25.4652 7.86291 25.5599 7.75244 25.6231 7.623C25.6618 7.49219 25.6618 7.35253 25.6231 7.22173L21.034 2.49057L22.2801 1.20557L29.8762 8.94655Z" fill="white"/>
</svg>
