<svg width="42" height="42" viewBox="0 0 42 42" fill="none" xmlns="http://www.w3.org/2000/svg">
<path d="M22.0918 33.0421C22.6152 33.0226 23.1074 32.796 23.4668 32.4171L33.3418 22.4171L34.7168 21.0109L33.3418 19.6046L23.4668 9.60462C22.6895 8.81165 21.416 8.79602 20.623 9.57337C19.8301 10.3507 19.8145 11.6241 20.5918 12.4171L27.123 19.0109L9.0293 19.0109C8.30664 18.9991 7.63867 19.3781 7.27539 20.0031C6.9082 20.6241 6.9082 21.3976 7.27539 22.0187C7.63867 22.6437 8.30664 23.0226 9.0293 23.0109L27.123 23.0109L20.5918 29.6046C19.9902 30.1866 19.8105 31.0773 20.1465 31.8468C20.4824 32.6124 21.2559 33.089 22.0918 33.0421Z" fill="#4F4F4F"/>
</svg>
