<svg width="7" height="10" viewBox="0 0 7 10" fill="none" xmlns="http://www.w3.org/2000/svg">
<path d="M3.5014 0C3.307 0 3.20979 0.0972022 3.20979 0.0972022C3.20979 0.0972022 1.17918 1.65244 0.116031 3.20767C0.0203478 3.35347 -0.029772 3.49928 0.0188291 3.64508C0.0674302 3.79088 0.261835 3.88809 0.406119 3.88809H6.59364C6.73793 3.88809 6.93233 3.79088 6.98093 3.64508C7.02953 3.49928 6.98093 3.35347 6.88373 3.20767C5.82058 1.65244 3.78997 0.0972022 3.78997 0.0972022C3.78997 0.0972022 3.69277 0 3.5014 0ZM0.406119 5.44332C0.261835 5.44332 0.0674302 5.54052 0.0188291 5.68633C-0.0282533 5.83213 0.0188291 5.97793 0.116031 6.12374C1.17918 7.67897 3.20979 9.23421 3.20979 9.23421C3.20979 9.23421 3.307 9.33141 3.49836 9.33141C3.69277 9.33141 3.78997 9.23421 3.78997 9.23421C3.78997 9.23421 5.82058 7.67897 6.88373 6.12374C6.98093 5.97793 7.02802 5.83213 6.98093 5.68633C6.93233 5.54052 6.73793 5.44332 6.59364 5.44332H0.406119Z" fill="#828282"/>
</svg>
