<svg width="43" height="43" viewBox="0 0 43 43" fill="none" xmlns="http://www.w3.org/2000/svg">
<path d="M21.5 0C9.63641 0 0 9.63641 0 21.5C0 33.3636 9.63641 43 21.5 43C33.3636 43 43 33.3636 43 21.5C43 9.63641 33.3636 0 21.5 0ZM21.5 1.86979C32.3521 1.86979 41.1302 10.6479 41.1302 21.5C41.1302 32.3521 32.3521 41.1302 21.5 41.1302C10.6479 41.1302 1.86979 32.3521 1.86979 21.5C1.86979 10.6479 10.6479 1.86979 21.5 1.86979Z" fill="white" fill-opacity="0.07"/>
<path d="M34.5758 15.3083C34.0791 14.0843 33.0602 14.2789 31.9555 14.4896C31.2962 14.6193 28.3591 15.4299 23.7265 20.0665C21.7999 21.9876 20.5326 23.5196 19.6934 24.6868C19.1796 24.0951 18.5973 23.4547 17.9808 22.8792C16.0884 21.0878 13.9733 19.8557 13.8877 19.8071C13.0057 19.2964 11.8497 19.5558 11.3017 20.3988C10.7622 21.2337 11.0363 22.328 11.9182 22.8468C11.9354 22.8549 13.7507 23.9168 15.3092 25.4001C16.9019 26.9078 18.349 28.9505 18.3661 28.9748C18.7172 29.4774 19.3081 29.7692 19.9332 29.7692C20.0359 29.7692 20.1472 29.7611 20.2586 29.7449C20.995 29.6233 21.5772 29.1045 21.7571 28.4236C21.7656 28.4074 22.5106 26.4539 26.441 22.5307C29.6093 19.3613 31.7243 18.3561 32.4607 18.0805C32.4693 18.0805 32.4693 18.0805 32.4864 18.0805C32.4864 18.0805 32.5121 18.0724 32.5549 18.0481C32.6834 17.9995 32.7519 17.9833 32.7519 17.9833C32.7176 17.9914 32.7005 17.9914 32.7005 17.9914V17.9833C33.043 17.8455 33.6767 17.5861 33.6852 17.578C34.6357 17.1889 34.9526 16.2162 34.5758 15.3083Z" fill="white" fill-opacity="0.07"/>
</svg>
