<svg width="18" height="18" viewBox="0 0 18 18" fill="none" xmlns="http://www.w3.org/2000/svg">
<path d="M2.0004 0C1.47093 0.00345968 0.964127 0.215326 0.589727 0.589727C0.215326 0.964127 0.00345968 1.47093 0 2.0004V6C0.00345968 6.52947 0.215326 7.03627 0.589727 7.41067C0.964127 7.78508 1.47093 7.99694 2.0004 8.0004H6C6.52947 7.99694 7.03627 7.78508 7.41067 7.41067C7.78508 7.03627 7.99694 6.52947 8.0004 6V2.0004C7.99694 1.47093 7.78508 0.964127 7.41067 0.589727C7.03627 0.215326 6.52947 0.00345968 6 0H2.0004ZM12 0C11.4705 0.00345968 10.9637 0.215326 10.5893 0.589727C10.2149 0.964127 10.0031 1.47093 9.9996 2.0004V6C10.0031 6.52947 10.2149 7.03627 10.5893 7.41067C10.9637 7.78508 11.4705 7.99694 12 8.0004H15.9996C16.5291 7.99694 17.0359 7.78508 17.4103 7.41067C17.7847 7.03627 17.9965 6.52947 18 6V2.0004C17.9965 1.47093 17.7847 0.964127 17.4103 0.589727C17.0359 0.215326 16.5291 0.00345968 15.9996 0H12ZM2.0004 2.0004H6V6H2.0004V2.0004ZM12 2.0004H15.9996V6H12V2.0004ZM2.0004 10.0008C1.47114 10.0043 0.964512 10.216 0.590146 10.5901C0.215779 10.9642 0.00377376 11.4707 0 12V15.9996C0.00345968 16.5291 0.215326 17.0359 0.589727 17.4103C0.964127 17.7847 1.47093 17.9965 2.0004 18H6C6.52947 17.9965 7.03627 17.7847 7.41067 17.4103C7.78508 17.0359 7.99694 16.5291 8.0004 15.9996V12C7.99694 11.4705 7.78508 10.9637 7.41067 10.5893C7.03627 10.2149 6.52947 10.0031 6 9.9996L2.0004 10.0008ZM12 10.0008C11.4707 10.0043 10.9641 10.216 10.5897 10.5901C10.2154 10.9642 10.0034 11.4707 9.9996 12V15.9996C10.0031 16.5291 10.2149 17.0359 10.5893 17.4103C10.9637 17.7847 11.4705 17.9965 12 18H15.9996C16.5291 17.9965 17.0359 17.7847 17.4103 17.4103C17.7847 17.0359 17.9965 16.5291 18 15.9996V12C17.9965 11.4705 17.7847 10.9637 17.4103 10.5893C17.0359 10.2149 16.5291 10.0031 15.9996 9.9996L12 10.0008ZM2.0004 12H6V15.9996H2.0004V12ZM12 12H15.9996V15.9996H12V12Z" fill="white"/>
</svg>
