<svg width="12" height="15" viewBox="0 0 12 15" fill="none" xmlns="http://www.w3.org/2000/svg">
<path d="M6.01542 0.000230733C5.89328 -0.00358079 5.77439 0.0399526 5.68359 0.121736C5.68359 0.121736 3.31268 2.21076 0.473684 2.21076C0.348059 2.21077 0.227583 2.26068 0.138753 2.34951C0.0499225 2.43834 1.25606e-05 2.55882 0 2.68444V6.55595C0 8.6648 0.975604 12.1349 5.8162 14.1738C5.87438 14.1982 5.93687 14.2109 6 14.2109C6.06313 14.2109 6.12562 14.1982 6.1838 14.1738C11.0244 12.1349 12 8.6648 12 6.55595V2.68444C12 2.55882 11.9501 2.43834 11.8612 2.34951C11.7724 2.26068 11.6519 2.21077 11.5263 2.21076C8.68731 2.21076 6.31641 0.121736 6.31641 0.121736C6.23352 0.0470541 6.12693 0.0040251 6.01542 0.000230733ZM6 1.08267C6.65146 1.60645 8.56145 2.94882 11.0526 3.11865V6.55595C11.0526 8.36929 10.3558 11.2947 6 13.2085C1.64418 11.2947 0.947368 8.36929 0.947368 6.55595V3.11865C3.43855 2.94882 5.34854 1.60645 6 1.08267ZM5.9926 4.09871C5.86708 4.10067 5.74747 4.15237 5.66004 4.24246C5.57261 4.33255 5.52452 4.45365 5.52632 4.57918V7.73707C5.52543 7.79984 5.53702 7.86216 5.56043 7.92041C5.58384 7.97866 5.61859 8.03167 5.66266 8.07637C5.70673 8.12108 5.75925 8.15657 5.81716 8.1808C5.87508 8.20503 5.93722 8.2175 6 8.2175C6.06277 8.2175 6.12492 8.20503 6.18284 8.1808C6.24075 8.15657 6.29326 8.12108 6.33734 8.07637C6.38141 8.03167 6.41616 7.97866 6.43957 7.92041C6.46298 7.86216 6.47457 7.79984 6.47368 7.73707V4.57918C6.47459 4.51578 6.46277 4.45284 6.4389 4.3941C6.41504 4.33535 6.37963 4.282 6.33476 4.23719C6.2899 4.19238 6.2365 4.15704 6.17772 4.13325C6.11895 4.10947 6.056 4.09772 5.9926 4.09871ZM6 9.15813C5.83249 9.15813 5.67185 9.22467 5.55341 9.34311C5.43496 9.46156 5.36842 9.6222 5.36842 9.78971C5.36842 9.95721 5.43496 10.1179 5.55341 10.2363C5.67185 10.3547 5.83249 10.4213 6 10.4213C6.1675 10.4213 6.32815 10.3547 6.44659 10.2363C6.56504 10.1179 6.63158 9.95721 6.63158 9.78971C6.63158 9.6222 6.56504 9.46156 6.44659 9.34311C6.32815 9.22467 6.1675 9.15813 6 9.15813Z" fill="#F04F62"/>
</svg>
