<svg width="25" height="19" viewBox="0 0 25 19" fill="none" xmlns="http://www.w3.org/2000/svg">
<path d="M9.61538 0C8.76277 0 7.98152 0.368089 7.45192 0.961538C6.23498 1.05544 5.34105 1.81415 4.47716 2.55409L4.14663 2.85457C3.45177 3.43675 1.36343 5.17202 0 6.3101V8.80409C0.225361 8.61629 4.34195 5.19456 5.37861 4.32692L5.73918 4.02644C6.13356 3.6884 6.4378 3.43675 6.73077 3.24519V9.70553C6.37019 9.9046 5.67909 10.2764 5.67909 10.2764L6.58053 11.9591C6.58053 11.9591 10.2614 9.9384 10.6971 9.70553C11.7263 9.14964 12.3573 8.65385 13.3113 8.65385C13.9386 8.65385 14.4231 9.15339 14.4231 9.88582C14.4231 10.3178 14.3292 10.4793 14.1526 10.6971C13.9761 10.915 13.6644 11.1704 13.2212 11.4483C12.177 12.1019 11.0276 13.2212 11.0276 13.2212L10.9675 13.3113L10.9075 13.3714C9.79192 14.9977 8.35712 16.3462 5.79928 16.3462H0V18.2692H5.79928C8.98438 18.2692 11.0652 16.4588 12.3798 14.6034C12.3798 14.6034 13.0747 13.9573 13.7019 13.4615H22.1154C23.7004 13.4615 25 12.162 25 10.5769V2.88462C25 1.29958 23.7004 0 22.1154 0H9.61538ZM9.61538 1.92308H22.1154C22.6562 1.92308 23.0769 2.34375 23.0769 2.88462V3.84615H9.61538V5.76923H23.0769V10.5769C23.0769 11.1178 22.6562 11.5385 22.1154 11.5385H15.9255C16.1922 11.0727 16.3462 10.5093 16.3462 9.88582C16.3462 8.18059 15.009 6.73077 13.3113 6.73077C11.6812 6.73077 10.5844 7.57963 9.76562 8.02284C9.63416 8.0942 9.10832 8.37214 8.65385 8.6238V2.88462C8.65385 2.34375 9.07452 1.92308 9.61538 1.92308Z" fill="white"/>
</svg>
