<svg width="18" height="20" viewBox="0 0 18 20" fill="none" xmlns="http://www.w3.org/2000/svg">
<path d="M7.00091 0.970947C6.95731 0.973673 6.9137 0.981849 6.8701 0.99275C6.62754 1.04181 6.4286 1.21623 6.34684 1.4506L2.98925 10.6513C2.88569 10.8884 2.92384 11.1636 3.08736 11.3653C3.24815 11.567 3.50706 11.6624 3.76324 11.6133C4.01669 11.5642 4.22109 11.3789 4.2974 11.1309L7.45877 2.47532L16.376 4.26313C16.1471 4.98261 14.8035 9.28043 13.2364 13.4202C12.5742 15.1698 12.0346 16.2954 11.4922 16.8868C11.1325 17.2792 10.7727 17.4809 10.2713 17.5627C7.7858 17.9115 8.09104 14.7501 8.09104 14.7501L0.154921 11.5452C-0.670849 15.1208 2.07354 15.9711 2.07354 15.9711L7.89482 18.6092C7.89482 18.6092 8.45351 18.8763 9.09396 18.9798C9.10758 18.9798 9.12393 18.9798 9.13756 18.9798C9.33651 19.0098 9.52728 19.0425 9.72623 19.0234C9.74803 19.018 9.76983 19.0071 9.79164 19.0016C10.8927 18.9662 11.8165 18.5874 12.517 17.8243C13.3182 16.9522 13.8687 15.7095 14.5446 13.9216C16.2615 9.38672 17.9676 3.93609 17.9676 3.93609C18.0275 3.74804 18.003 3.54364 17.9049 3.37195C17.8041 3.20298 17.6378 3.08307 17.4443 3.04219L7.13173 0.99275C7.08812 0.981849 7.04452 0.973673 7.00091 0.970947ZM8.02563 4.82999C7.65499 4.8627 7.37428 5.17611 7.38518 5.54948C7.39881 5.92012 7.69859 6.21718 8.06924 6.22536C8.11557 6.23626 8.15645 6.24171 8.17825 6.24716C8.55707 6.32619 8.92771 6.08091 9.00675 5.70209C9.08578 5.32328 8.8405 4.95263 8.46168 4.8736C8.41535 4.8627 8.39627 4.85725 8.37447 4.8518C8.30361 4.83272 8.23003 4.82454 8.15645 4.82999C8.11284 4.82454 8.06924 4.82454 8.02563 4.82999ZM10.2931 5.48407C9.95243 5.51132 9.6799 5.78385 9.65265 6.12452C9.62539 6.46518 9.85159 6.77587 10.1841 6.85763L13.2364 7.70793C13.6098 7.81149 13.9941 7.59074 14.0976 7.21737C14.2012 6.844 13.9804 6.45973 13.6071 6.35617L10.5547 5.52767C10.492 5.50315 10.4266 5.48952 10.3585 5.48407C10.3367 5.48407 10.3149 5.48407 10.2931 5.48407ZM7.00091 7.72973C6.66843 7.78424 6.42042 8.07039 6.41497 8.40833C6.40952 8.74627 6.64662 9.03788 6.97911 9.10329C7.02544 9.11419 7.06632 9.11964 7.08812 9.12509C7.3443 9.21775 7.63319 9.15507 7.82396 8.95885C8.01746 8.76535 8.07741 8.47647 7.9793 8.22029C7.88119 7.96683 7.64409 7.78969 7.37156 7.77333C7.32523 7.76243 7.30615 7.75698 7.28435 7.75153C7.19169 7.72428 7.0963 7.71883 7.00091 7.72973ZM9.02855 8.362C8.70969 8.41378 8.46713 8.67541 8.44261 8.99428C8.41535 9.31586 8.6143 9.61292 8.91953 9.71376L11.9719 10.7167C12.3398 10.8366 12.735 10.6376 12.8549 10.2697C12.9748 9.9018 12.7759 9.50663 12.4079 9.38672L9.35559 8.40561C9.25202 8.36473 9.14029 8.3511 9.02855 8.362ZM5.88898 10.4114C5.5565 10.4659 5.30849 10.7521 5.30304 11.09C5.29759 11.428 5.53469 11.7196 5.86718 11.785C5.91351 11.7959 5.95439 11.8014 5.97619 11.8068C6.22965 11.8967 6.51308 11.8313 6.70385 11.6433C6.8919 11.4525 6.95731 11.1691 6.86737 10.9156C6.77744 10.6622 6.54851 10.4823 6.28143 10.455C6.2351 10.4441 6.19422 10.4387 6.17242 10.4332C6.07976 10.406 5.98437 10.4005 5.88898 10.4114ZM7.87301 11.1745C7.55688 11.2318 7.3225 11.4961 7.3007 11.815C7.2789 12.1366 7.48057 12.4282 7.7858 12.5263L10.8164 13.5292C11.1843 13.6491 11.5794 13.4502 11.6994 13.0822C11.8193 12.7143 11.6203 12.3192 11.2524 12.1992L8.22185 11.2181C8.11012 11.1745 7.9902 11.1582 7.87301 11.1745Z" fill="#333333"/>
</svg>
