<svg width="18" height="20" viewBox="0 0 18 20" fill="none" xmlns="http://www.w3.org/2000/svg">
<path d="M9.14286 0.857178C4.11429 0.857178 0 4.97146 0 10C0 15.0286 4.11429 19.1429 9.14286 19.1429C12.5074 19.1429 15.4539 17.296 17.0417 14.5715H15.2173C13.8237 16.416 11.619 17.6191 9.14286 17.6191C4.95238 17.6191 1.52381 14.1905 1.52381 10C1.52381 5.80956 4.95238 2.38099 9.14286 2.38099C11.6198 2.38099 13.8237 3.58404 15.2173 5.42861H17.0417C15.4539 2.70404 12.5074 0.857178 9.14286 0.857178ZM13.7143 6.95242V9.23813H6.85714V10.7619H13.7143V13.0477L18 10L13.7143 6.95242Z" fill="#313143"/>
</svg>
