<svg width="18" height="18" viewBox="0 0 18 18" fill="none" xmlns="http://www.w3.org/2000/svg">
<path d="M0.719502 16.9306H0.5V16.7111L5.83343 11.3977L6.18832 11.0442L5.8341 10.69L2.99081 7.84666L2.9909 7.84657L2.98287 7.83889L2.87842 7.73899L2.99081 7.62661C4.11959 6.49783 5.70192 6.08119 7.18594 6.34376L7.44243 6.38914L7.62661 6.20496L10.3051 3.5265L10.4357 3.39588L10.45 3.2117C10.5179 2.33796 10.8149 1.49246 11.4093 0.835436L11.5324 0.706946L11.6621 0.831177L16.5993 5.76838L16.7181 5.89262L16.5994 6.0167C15.8855 6.72808 14.8772 7.02092 13.8635 6.90019L13.6225 6.87148L13.4508 7.04312L11.102 9.39193L10.9034 9.59053L10.9697 9.86347C11.3477 11.42 10.989 13.1312 9.74219 14.378L9.6298 14.4904L9.5299 14.3859L9.52999 14.3858L9.52213 14.378L6.74065 11.5965L6.38643 11.2423L6.03288 11.5972L0.719502 16.9306ZM12.0152 1.66559L11.544 1.19439L11.2233 1.77856C10.9453 2.28496 10.7083 2.87155 10.7083 3.52321V3.58395L7.56206 6.73022L7.49655 6.71096L7.48898 6.70873L7.48135 6.70675C6.22972 6.38114 4.92574 6.73796 3.87846 7.45867L3.38352 7.79927L3.80836 8.22411L9.20649 13.6222L9.62395 14.0397L9.96698 13.5592C10.8237 12.3592 11.0273 10.8834 10.592 9.57077L10.5609 9.47231L13.4572 6.57608L13.5469 6.60101L13.5469 6.60119L13.56 6.60445C14.3417 6.79903 15.0681 6.5395 15.6586 6.20362L16.2289 5.87931L15.765 5.41544L12.0152 1.66559Z" fill="#BDBDBD" stroke="#BDBDBD"/>
</svg>
