<svg width="45" height="27" viewBox="0 0 45 27" fill="none" xmlns="http://www.w3.org/2000/svg">
<path d="M0.997484 0.985124C1.08476 0.842687 1.14722 0.685907 1.18208 0.521729L40.8054 0.627845L42.3658 3.0591L44.9188 4.26971V24.2183C44.7301 24.9219 44.2914 25.5285 43.6882 25.9199C42.7801 26.4279 41.8016 26.7921 40.7863 26.9999L5.07279 26.924C4.10153 26.5584 3.18746 26.0507 2.3592 25.417C1.53951 24.6347 0.848304 23.7231 0.312012 22.717L0.568603 1.13959C0.719258 1.11386 0.86438 1.0616 0.997484 0.985124Z" fill="white"/>
<path d="M21.5364 16.9535C24.2551 16.9535 26.459 14.7045 26.459 11.9302C26.459 9.15597 24.2551 6.90698 21.5364 6.90698C18.8177 6.90698 16.6138 9.15597 16.6138 11.9302C16.6138 14.7045 18.8177 16.9535 21.5364 16.9535Z" fill="url(#paint0_linear)"/>
<path d="M31.074 13.8139C31.9235 13.8139 32.6123 13.111 32.6123 12.2441C32.6123 11.3771 31.9235 10.6743 31.074 10.6743C30.2244 10.6743 29.5356 11.3771 29.5356 12.2441C29.5356 13.111 30.2244 13.8139 31.074 13.8139Z" fill="url(#paint1_linear)"/>
<path d="M11.9988 13.8139C12.8484 13.8139 13.5371 13.111 13.5371 12.2441C13.5371 11.3771 12.8484 10.6743 11.9988 10.6743C11.1492 10.6743 10.4604 11.3771 10.4604 12.2441C10.4604 13.111 11.1492 13.8139 11.9988 13.8139Z" fill="url(#paint2_linear)"/>
<path d="M2.76404 0C2.03148 0.00132747 1.32928 0.298832 0.811224 0.827366C0.293164 1.3559 0.00146397 2.07239 0 2.81993V21.4562C-1.15915e-06 22.2047 0.291052 22.9227 0.80927 23.4524C1.32749 23.9822 2.03052 24.2805 2.76404 24.2818H39.651C40.3845 24.2805 41.0875 23.9822 41.6057 23.4524C42.124 22.9227 42.415 22.2047 42.415 21.4562V3.5483C42.757 3.54689 43.0908 3.65527 43.369 3.85811C43.6473 4.06095 43.856 4.34797 43.9656 4.67853V23.733C43.9656 25.0064 43.3232 25.8629 42.3658 25.8629H5.17181C4.92686 25.8629 4.68519 25.8053 4.46565 25.6944C4.24611 25.5835 4.05462 25.4224 3.90609 25.2237C3.82221 25.1127 3.69858 25.0404 3.56242 25.0225C3.42625 25.0046 3.28869 25.0426 3.18 25.1282C3.07132 25.2138 3.0004 25.34 2.98286 25.4789C2.96532 25.6179 3.00259 25.7582 3.08647 25.8691C3.33165 26.196 3.64742 26.4607 4.00921 26.6427C4.37101 26.8247 4.76907 26.919 5.17243 26.9184H42.3639C43.9152 26.9184 44.9981 25.6086 44.9975 23.733V4.67791C44.9975 3.69272 43.8383 2.50409 42.3922 2.48839C42.3116 1.80328 41.988 1.17198 41.4825 0.713579C40.9771 0.255175 40.3247 0.00135634 39.6485 0H2.76404ZM2.76404 1.05551H39.651C40.1092 1.05634 40.5485 1.24252 40.8725 1.57325C41.1965 1.90398 41.3788 2.35229 41.3794 2.81993V21.4562C41.3789 21.9242 41.1965 22.3728 40.8723 22.7037C40.548 23.0346 40.1083 23.2208 39.6497 23.2213H2.76404C2.30556 23.2206 1.86605 23.0344 1.54191 22.7035C1.21777 22.3726 1.03547 21.9241 1.03498 21.4562V2.81993C1.03563 2.35218 1.21801 1.90378 1.54213 1.57303C1.86625 1.24228 2.30567 1.05618 2.76404 1.05551ZM5.75945 3.69272C5.69091 3.69272 5.62517 3.72051 5.57671 3.76996C5.52824 3.81942 5.50101 3.8865 5.50101 3.95644C5.52385 4.55927 5.31176 5.14678 4.91114 5.59042C4.51053 6.03406 3.95401 6.2977 3.36337 6.32365C3.29483 6.32365 3.22909 6.35144 3.18063 6.40089C3.13216 6.45035 3.10493 6.51743 3.10493 6.58737V17.6888C3.10493 17.7587 3.13216 17.8258 3.18063 17.8752C3.22909 17.9247 3.29483 17.9525 3.36337 17.9525C3.95379 17.9784 4.51011 18.2419 4.9107 18.6853C5.31128 19.1286 5.52352 19.7158 5.50101 20.3184C5.50101 20.3884 5.52824 20.4555 5.57671 20.5049C5.62517 20.5544 5.69091 20.5822 5.75945 20.5822H36.6556C36.6896 20.5822 36.7233 20.5753 36.7548 20.562C36.7862 20.5486 36.8147 20.5291 36.8387 20.5045C36.8628 20.4799 36.8818 20.4506 36.8947 20.4185C36.9076 20.3864 36.9142 20.3519 36.914 20.3172C36.8917 19.7146 37.104 19.1275 37.5045 18.6842C37.9051 18.2409 38.4613 17.9774 39.0516 17.9512C39.0858 17.9516 39.1197 17.9451 39.1514 17.9321C39.1831 17.9191 39.2119 17.8997 39.2362 17.8753C39.2844 17.8249 39.3112 17.7572 39.3107 17.6869V6.58612C39.3107 6.51617 39.2835 6.4491 39.235 6.39964C39.1865 6.35018 39.1208 6.3224 39.0523 6.3224C38.462 6.2966 37.9058 6.03348 37.505 5.59053C37.1042 5.14758 36.8915 4.56078 36.9134 3.95833C36.9134 3.88838 36.8862 3.8213 36.8377 3.77185C36.7892 3.72239 36.7235 3.69461 36.655 3.69461H33.8798C33.8112 3.69461 33.7454 3.72242 33.6969 3.77194C33.6483 3.82146 33.6211 3.88861 33.6211 3.95864C33.6211 4.02867 33.6483 4.09582 33.6969 4.14534C33.7454 4.19486 33.8112 4.22267 33.8798 4.22267H36.4076C36.4471 4.87319 36.7068 5.48952 37.1422 5.9663C37.5777 6.44309 38.1619 6.75073 38.7951 6.83665V17.4376C38.1619 17.5242 37.5778 17.8325 37.1426 18.3097C36.7074 18.7869 36.4481 19.4034 36.4088 20.0541H6.01173C5.9723 19.4027 5.71223 18.7855 5.27603 18.3082C4.83983 17.8309 4.25463 17.5231 3.62058 17.4376V6.83791C4.25349 6.75122 4.83733 6.44314 5.27249 5.96621C5.70766 5.48929 5.96719 4.87307 6.00681 4.22267H28.708C28.7766 4.22267 28.8425 4.19486 28.891 4.14534C28.9395 4.09582 28.9668 4.02867 28.9668 3.95864C28.9668 3.88861 28.9395 3.82146 28.891 3.77194C28.8425 3.72242 28.7766 3.69461 28.708 3.69461L5.75945 3.69272ZM29.7424 3.69272C29.6738 3.69272 29.6079 3.72054 29.5594 3.77006C29.5109 3.81957 29.4836 3.88673 29.4836 3.95676C29.4836 4.02678 29.5109 4.09394 29.5594 4.14346C29.6079 4.19297 29.6738 4.22079 29.7424 4.22079H30.2599C30.3285 4.22079 30.3943 4.19297 30.4428 4.14346C30.4914 4.09394 30.5186 4.02678 30.5186 3.95676C30.5186 3.88673 30.4914 3.81957 30.4428 3.77006C30.3943 3.72054 30.3285 3.69272 30.2599 3.69272H29.7424ZM21.3869 6.74058C20.3639 6.74058 19.3638 7.05014 18.5132 7.63012C17.6626 8.21009 16.9997 9.03443 16.6082 9.99889C16.2167 10.9634 16.1143 12.0246 16.3138 13.0485C16.5134 14.0724 17.006 15.0128 17.7294 15.751C18.4528 16.4892 19.3744 16.9919 20.3778 17.1955C21.3811 17.3992 22.4211 17.2947 23.3663 16.8952C24.3114 16.4957 25.1192 15.8192 25.6876 14.9512C26.2559 14.0832 26.5593 13.0627 26.5593 12.0188C26.5577 10.6194 26.0122 9.27785 25.0425 8.28836C24.0729 7.29887 22.7582 6.74224 21.3869 6.74058ZM21.3869 7.26865C22.3075 7.26865 23.2075 7.54724 23.973 8.06919C24.7385 8.59114 25.3352 9.33301 25.6875 10.201C26.0398 11.0689 26.132 12.024 25.9524 12.9455C25.7728 13.8669 25.3294 14.7133 24.6784 15.3776C24.0274 16.0419 23.198 16.4943 22.295 16.6776C21.392 16.8609 20.4561 16.7668 19.6055 16.4073C18.7549 16.0478 18.0279 15.4389 17.5164 14.6578C17.0049 13.8766 16.7319 12.9583 16.7319 12.0188C16.7326 10.7589 17.2231 9.55073 18.0959 8.65955C18.9686 7.76838 20.1522 7.26701 21.3869 7.26551V7.26865ZM11.8179 10.1715C11.4599 10.1715 11.1099 10.2798 10.8122 10.4828C10.5145 10.6858 10.2825 10.9743 10.1455 11.3118C10.0084 11.6494 9.97259 12.0208 10.0424 12.3792C10.1123 12.7375 10.2847 13.0667 10.5379 13.325C10.7911 13.5834 11.1136 13.7593 11.4648 13.8306C11.8159 13.9019 12.1799 13.8653 12.5107 13.7255C12.8415 13.5856 13.1242 13.3489 13.3231 13.0451C13.5221 12.7413 13.6282 12.3841 13.6282 12.0188C13.6277 11.529 13.4369 11.0594 13.0975 10.7131C12.7581 10.3667 12.2979 10.172 11.8179 10.1715ZM30.9546 10.1715C30.5965 10.1715 30.2465 10.2798 29.9488 10.4828C29.6511 10.6858 29.4191 10.9743 29.2821 11.3118C29.1451 11.6494 29.1092 12.0208 29.1791 12.3792C29.2489 12.7375 29.4213 13.0667 29.6745 13.325C29.9277 13.5834 30.2502 13.7593 30.6014 13.8306C30.9526 13.9019 31.3166 13.8653 31.6473 13.7255C31.9781 13.5856 32.2609 13.3489 32.4598 13.0451C32.6587 12.7413 32.7649 12.3841 32.7649 12.0188C32.7644 11.5292 32.5737 11.0598 32.2345 10.7135C31.8954 10.3672 31.4356 10.1723 30.9558 10.1715H30.9546ZM11.8179 10.6995C12.0735 10.6995 12.3233 10.7769 12.5358 10.9218C12.7483 11.0666 12.914 11.2726 13.0118 11.5135C13.1096 11.7545 13.1352 12.0196 13.0853 12.2754C13.0354 12.5312 12.9124 12.7661 12.7317 12.9505C12.5509 13.1349 12.3207 13.2605 12.07 13.3114C11.8194 13.3623 11.5596 13.3362 11.3234 13.2364C11.0873 13.1366 10.8855 12.9676 10.7435 12.7507C10.6015 12.5339 10.5258 12.2789 10.5258 12.0181C10.5258 11.6684 10.6619 11.333 10.9042 11.0857C11.1466 10.8385 11.4752 10.6995 11.8179 10.6995ZM30.9546 10.6995C31.2101 10.6995 31.46 10.7769 31.6725 10.9218C31.885 11.0666 32.0506 11.2726 32.1484 11.5135C32.2462 11.7545 32.2718 12.0196 32.2219 12.2754C32.1721 12.5312 32.049 12.7661 31.8683 12.9505C31.6876 13.1349 31.4573 13.2605 31.2067 13.3114C30.956 13.3623 30.6962 13.3362 30.4601 13.2364C30.224 13.1366 30.0222 12.9676 29.8802 12.7507C29.7382 12.5339 29.6624 12.2789 29.6624 12.0181C29.6624 11.8449 29.6959 11.6733 29.7609 11.5132C29.8259 11.3532 29.9212 11.2078 30.0413 11.0853C30.1614 10.9628 30.304 10.8657 30.4609 10.7995C30.6178 10.7334 30.786 10.6994 30.9558 10.6995H30.9546Z" fill="#4F4F4F"/>
<defs>
<linearGradient id="paint0_linear" x1="17.4928" y1="8.5814" x2="26.2537" y2="8.89696" gradientUnits="userSpaceOnUse">
<stop stop-color="#3565C3"/>
<stop offset="1" stop-color="#2B1485"/>
</linearGradient>
<linearGradient id="paint1_linear" x1="29.8103" y1="11.1976" x2="32.5481" y2="11.2962" gradientUnits="userSpaceOnUse">
<stop stop-color="#3565C3"/>
<stop offset="1" stop-color="#2B1485"/>
</linearGradient>
<linearGradient id="paint2_linear" x1="10.7351" y1="11.1976" x2="13.4729" y2="11.2962" gradientUnits="userSpaceOnUse">
<stop stop-color="#3565C3"/>
<stop offset="1" stop-color="#2B1485"/>
</linearGradient>
</defs>
</svg>
