<svg width="18" height="20" viewBox="0 0 18 20" fill="none" xmlns="http://www.w3.org/2000/svg">
<path d="M7 0.755615L6.88889 1.33339L6.46667 3.4445C5.78889 3.71117 5.17778 4.08617 4.62222 4.53339L2.55556 3.82228L2 3.6445L1.71111 4.15562L0.288889 6.60006L0 7.11117L0.422222 7.48895L2.02222 8.88895C1.96389 9.25284 1.88889 9.61673 1.88889 10.0001C1.88889 10.3834 1.96389 10.7473 2.02222 11.1112L0.422222 12.5112L0 12.8889L0.288889 13.4001L1.71111 15.8445L2 16.3556L2.55556 16.1778L4.62222 15.4667C5.17778 15.9139 5.78889 16.2889 6.46667 16.5556L6.88889 18.6667L7 19.2445H11L11.1111 18.6667L11.5333 16.5556C12.2111 16.2889 12.8222 15.9139 13.3778 15.4667L15.4444 16.1778L16 16.3556L16.2889 15.8445L17.7111 13.4001L18 12.8889L17.5778 12.5112L15.9778 11.1112C16.0361 10.7473 16.1111 10.3834 16.1111 10.0001C16.1111 9.61673 16.0361 9.25284 15.9778 8.88895L17.5778 7.48895L18 7.11117L17.7111 6.60006L16.2889 4.15562L16 3.6445L15.4444 3.82228L13.3778 4.53339C12.8222 4.08617 12.2111 3.71117 11.5333 3.4445L11.1111 1.33339L11 0.755615H7ZM8.15556 2.17784H9.84444L10.2 4.02228L10.2889 4.4445L10.6889 4.57784C11.4972 4.83062 12.2306 5.25839 12.8444 5.82228L13.1556 6.11117L13.5556 5.97784L15.3556 5.35562L16.2 6.80006L14.7778 8.06673L14.4444 8.33339L14.5556 8.75562C14.6472 9.16117 14.6889 9.57506 14.6889 10.0001C14.6889 10.4251 14.6472 10.8389 14.5556 11.2445L14.4667 11.6667L14.7778 11.9334L16.2 13.2001L15.3556 14.6445L13.5556 14.0223L13.1556 13.8889L12.8444 14.1778C12.2306 14.7417 11.4972 15.1695 10.6889 15.4223L10.2889 15.5556L10.2 15.9778L9.84444 17.8223H8.15556L7.8 15.9778L7.71111 15.5556L7.31111 15.4223C6.50278 15.1695 5.76944 14.7417 5.15556 14.1778L4.84444 13.8889L4.44444 14.0223L2.64444 14.6445L1.8 13.2001L3.22222 11.9334L3.55556 11.6667L3.44444 11.2445C3.35278 10.8389 3.31111 10.4251 3.31111 10.0001C3.31111 9.57506 3.35278 9.16117 3.44444 8.75562L3.55556 8.33339L3.22222 8.06673L1.8 6.80006L2.64444 5.35562L4.44444 5.97784L4.84444 6.11117L5.15556 5.82228C5.76944 5.25839 6.50278 4.83062 7.31111 4.57784L7.71111 4.4445L7.8 4.02228L8.15556 2.17784ZM9 6.4445C7.04444 6.4445 5.44444 8.0445 5.44444 10.0001C5.44444 11.9556 7.04444 13.5556 9 13.5556C10.9556 13.5556 12.5556 11.9556 12.5556 10.0001C12.5556 8.0445 10.9556 6.4445 9 6.4445ZM9 7.86673C10.1861 7.86673 11.1333 8.81395 11.1333 10.0001C11.1333 11.1862 10.1861 12.1334 9 12.1334C7.81389 12.1334 6.86667 11.1862 6.86667 10.0001C6.86667 8.81395 7.81389 7.86673 9 7.86673Z" fill="#313143"/>
</svg>
