<svg width="18" height="18" viewBox="0 0 18 18" fill="none" xmlns="http://www.w3.org/2000/svg">
<path d="M3.01208 0.165588L0 0.181115L0.00862565 1.94765L1.83726 1.93902L4.74756 8.92062L3.68833 10.613C3.3359 11.1783 3.31847 11.8923 3.64175 12.4744C3.96502 13.0573 4.57841 13.418 5.24439 13.418H15.8953V11.6515H5.24439L5.18746 11.548L6.22599 9.88497H12.8229C13.4641 9.88497 14.056 9.53582 14.3669 8.97583L18 2.43586L16.456 1.57847L12.8229 8.11844H6.32605L3.01208 0.165588ZM5.29615 14.3013C4.82763 14.3013 4.37831 14.4874 4.04702 14.8187C3.71573 15.15 3.52961 15.5993 3.52961 16.0678C3.52961 16.5363 3.71573 16.9857 4.04702 17.317C4.37831 17.6483 4.82763 17.8344 5.29615 17.8344C5.76466 17.8344 6.21398 17.6483 6.54527 17.317C6.87656 16.9857 7.06268 16.5363 7.06268 16.0678C7.06268 15.5993 6.87656 15.15 6.54527 14.8187C6.21398 14.4874 5.76466 14.3013 5.29615 14.3013ZM14.1288 14.3013C13.6603 14.3013 13.211 14.4874 12.8797 14.8187C12.5484 15.15 12.3623 15.5993 12.3623 16.0678C12.3623 16.5363 12.5484 16.9857 12.8797 17.317C13.211 17.6483 13.6603 17.8344 14.1288 17.8344C14.5973 17.8344 15.0466 17.6483 15.3779 17.317C15.7092 16.9857 15.8953 16.5363 15.8953 16.0678C15.8953 15.5993 15.7092 15.15 15.3779 14.8187C15.0466 14.4874 14.5973 14.3013 14.1288 14.3013Z" fill="#333333"/>
</svg>
