<svg width="21" height="5" viewBox="0 0 21 5" fill="none" xmlns="http://www.w3.org/2000/svg">
<path d="M2.42308 0C1.08534 0 0 1.08534 0 2.42308C0 3.76082 1.08534 4.84615 2.42308 4.84615C3.76082 4.84615 4.84615 3.76082 4.84615 2.42308C4.84615 1.08534 3.76082 0 2.42308 0ZM10.5 0C9.16226 0 8.07692 1.08534 8.07692 2.42308C8.07692 3.76082 9.16226 4.84615 10.5 4.84615C11.8377 4.84615 12.9231 3.76082 12.9231 2.42308C12.9231 1.08534 11.8377 0 10.5 0ZM18.5769 0C17.2392 0 16.1538 1.08534 16.1538 2.42308C16.1538 3.76082 17.2392 4.84615 18.5769 4.84615C19.9147 4.84615 21 3.76082 21 2.42308C21 1.08534 19.9147 0 18.5769 0Z" fill="#BDBDBD"/>
</svg>
