<svg width="18" height="20" viewBox="0 0 18 20" fill="none" xmlns="http://www.w3.org/2000/svg">
<path d="M8.64 0.640015C4.28625 0.640015 0.72 4.20626 0.72 8.56001V9.66251C0.284062 10.1294 0 10.7425 0 11.44C0 12.5875 0.739688 13.4622 1.71 13.9375C2.52844 17.0088 5.29594 19.36 8.64 19.36C10.9969 19.36 13.0781 18.2575 14.3775 16.48H14.4C15.7922 16.48 16.9453 15.4985 17.2125 14.185C17.3531 14.1203 17.4825 14.0275 17.595 13.915C17.8678 13.6422 18 13.2569 18 12.88V9.28001C18 8.90314 17.8678 8.51783 17.595 8.24502C17.3222 7.9722 16.9369 7.84001 16.56 7.84001H16.515C16.1494 3.82095 12.7519 0.640015 8.64 0.640015ZM8.64 2.08001C11.7844 2.08001 14.4028 4.34408 14.985 7.32252C14.8556 7.27189 14.7234 7.23814 14.6025 7.21001C14.0906 7.08908 13.5956 7.05533 13.14 6.94001C12.6844 6.8247 12.3159 6.66158 12.0375 6.31001C11.7591 5.95845 11.52 5.35939 11.52 4.24001H10.08C10.08 5.66033 9.67219 6.23126 9.0675 6.60251C8.46281 6.97376 7.50094 7.09752 6.4575 7.12002C5.41406 7.14252 4.33969 7.06095 3.375 7.25501C2.96719 7.33658 2.55094 7.46595 2.205 7.72751C2.61844 4.5522 5.35781 2.08001 8.64 2.08001ZM10.755 6.96251C10.8084 7.04408 10.8534 7.13689 10.9125 7.21001C11.4441 7.87939 12.1556 8.18033 12.78 8.33501C13.4044 8.4897 13.9894 8.5347 14.2875 8.60501C14.3803 8.62751 14.3775 8.63595 14.4 8.65001V14.32H15.66C15.4294 14.7616 14.9822 15.04 14.4 15.04H10.0125C9.86625 14.6181 9.4725 14.32 9 14.32C8.40375 14.32 7.92 14.8038 7.92 15.4C7.92 15.9963 8.40375 16.48 9 16.48H12.465C11.4638 17.3856 10.1278 17.92 8.64 17.92C5.88938 17.92 3.59156 15.9316 3.015 13.375L2.925 12.97L2.52 12.835C1.85063 12.6297 1.44 12.1403 1.44 11.44C1.44 10.8353 1.92094 10.2278 2.34 10.1125L2.88 9.97752V9.41502C2.88 9.0972 2.94469 9.01283 3.0375 8.92002C3.13031 8.8272 3.31875 8.7372 3.645 8.67251C4.30031 8.54033 5.38594 8.58251 6.5025 8.56001C7.61906 8.53751 8.81719 8.43908 9.8325 7.81751C10.1813 7.60376 10.4991 7.31408 10.755 6.96251ZM15.84 9.28001H16.56V12.88H15.84V9.28001ZM6.12 10C5.52375 10 5.04 10.4838 5.04 11.08C5.04 11.6763 5.52375 12.16 6.12 12.16C6.71625 12.16 7.2 11.6763 7.2 11.08C7.2 10.4838 6.71625 10 6.12 10ZM11.16 10C10.5638 10 10.08 10.4838 10.08 11.08C10.08 11.6763 10.5638 12.16 11.16 12.16C11.7563 12.16 12.24 11.6763 12.24 11.08C12.24 10.4838 11.7563 10 11.16 10Z" fill="#333333"/>
</svg>
