<svg width="36" height="36" viewBox="0 0 36 36" fill="none" xmlns="http://www.w3.org/2000/svg">
<path d="M17.9785 0.000147674C17.5882 0.00585521 17.2154 0.163499 16.9395 0.439599L10.9395 6.43957C10.7955 6.57779 10.6806 6.74334 10.6014 6.92654C10.5222 7.10973 10.4804 7.30687 10.4784 7.50643C10.4763 7.70599 10.5141 7.90395 10.5896 8.08871C10.665 8.27347 10.7766 8.44133 10.9177 8.58244C11.0588 8.72356 11.2266 8.8351 11.4114 8.91053C11.5962 8.98597 11.7941 9.02378 11.9937 9.02175C12.1932 9.01972 12.3904 8.97789 12.5736 8.89872C12.7568 8.81955 12.9223 8.70462 13.0605 8.56066L16.5 5.12122V26.5C16.4972 26.6988 16.5339 26.8962 16.608 27.0806C16.6822 27.2651 16.7922 27.4329 16.9318 27.5745C17.0713 27.716 17.2376 27.8284 17.421 27.9052C17.6044 27.9819 17.8012 28.0214 18 28.0214C18.1988 28.0214 18.3956 27.9819 18.579 27.9052C18.7624 27.8284 18.9287 27.716 19.0682 27.5745C19.2078 27.4329 19.3178 27.2651 19.392 27.0806C19.4661 26.8962 19.5028 26.6988 19.5 26.5V5.12122L22.9395 8.56066C23.0777 8.70462 23.2432 8.81955 23.4264 8.89872C23.6096 8.97789 23.8068 9.01972 24.0063 9.02175C24.2059 9.02378 24.4038 8.98597 24.5886 8.91053C24.7734 8.8351 24.9412 8.72356 25.0823 8.58244C25.2234 8.44133 25.335 8.27347 25.4104 8.08871C25.4859 7.90395 25.5237 7.70599 25.5216 7.50643C25.5196 7.30687 25.4778 7.10973 25.3986 6.92654C25.3194 6.74334 25.2045 6.57779 25.0605 6.43957L19.0605 0.439599C18.9187 0.297727 18.7499 0.185738 18.5641 0.110256C18.3782 0.0347743 18.1791 -0.00266678 17.9785 0.000147674ZM5.5 11.0001C2.48023 11.0001 0 13.4803 0 16.5001V30.5C0 33.5198 2.48023 36 5.5 36H30.5C33.5198 36 36 33.5198 36 30.5V16.5001C36 13.4803 33.5198 11.0001 30.5 11.0001H28.5C28.3012 10.9973 28.1039 11.034 27.9194 11.1081C27.735 11.1823 27.5671 11.2923 27.4255 11.4319C27.284 11.5714 27.1716 11.7377 27.0949 11.9211C27.0181 12.1045 26.9786 12.3013 26.9786 12.5001C26.9786 12.6989 27.0181 12.8957 27.0949 13.0791C27.1716 13.2625 27.284 13.4288 27.4255 13.5683C27.5671 13.7079 27.735 13.8179 27.9194 13.8921C28.1039 13.9662 28.3012 14.0029 28.5 14.0001H30.5C31.8982 14.0001 33 15.1019 33 16.5001V30.5C33 31.8982 31.8982 33 30.5 33H5.5C4.10177 33 3 31.8982 3 30.5V16.5001C3 15.1019 4.10177 14.0001 5.5 14.0001H7.5C7.69877 14.0029 7.89611 13.9662 8.08056 13.8921C8.26502 13.8179 8.4329 13.7079 8.57445 13.5683C8.71601 13.4288 8.82841 13.2625 8.90513 13.0791C8.98185 12.8957 9.02136 12.6989 9.02136 12.5001C9.02136 12.3013 8.98185 12.1045 8.90513 11.9211C8.82841 11.7377 8.71601 11.5714 8.57445 11.4319C8.4329 11.2923 8.26502 11.1823 8.08056 11.1081C7.89611 11.034 7.69877 10.9973 7.5 11.0001H5.5Z" fill="#BDBDBD"/>
</svg>
