<svg width="22" height="22" viewBox="0 0 22 22" fill="none" xmlns="http://www.w3.org/2000/svg">
<path d="M10.9869 9.02451e-05C10.7483 0.00357818 10.5205 0.0999159 10.3519 0.268644L6.68522 3.9353C6.59725 4.01976 6.52701 4.12093 6.47863 4.23288C6.43024 4.34483 6.40468 4.46531 6.40344 4.58726C6.4022 4.70922 6.42531 4.83019 6.47141 4.9431C6.51751 5.05601 6.58567 5.15859 6.67191 5.24483C6.75815 5.33106 6.86072 5.39923 6.97364 5.44533C7.08655 5.49143 7.20752 5.51453 7.32947 5.51329C7.45143 5.51205 7.57191 5.48649 7.68386 5.43811C7.79581 5.38972 7.89698 5.31949 7.98145 5.23151L10.0833 3.12963V16.1945C10.0816 16.3159 10.1041 16.4365 10.1494 16.5493C10.1946 16.662 10.2619 16.7646 10.3472 16.8511C10.4325 16.9376 10.5341 17.0063 10.6462 17.0532C10.7582 17.1 10.8785 17.1242 11 17.1242C11.1215 17.1242 11.2418 17.1 11.3538 17.0532C11.4659 17.0063 11.5675 16.9376 11.6528 16.8511C11.7381 16.7646 11.8054 16.662 11.8506 16.5493C11.8959 16.4365 11.9184 16.3159 11.9167 16.1945V3.12963L14.0186 5.23151C14.103 5.31949 14.2042 5.38972 14.3161 5.43811C14.4281 5.48649 14.5486 5.51205 14.6705 5.51329C14.7925 5.51453 14.9135 5.49143 15.0264 5.44533C15.1393 5.39923 15.2419 5.33106 15.3281 5.24483C15.4143 5.15859 15.4825 5.05601 15.5286 4.9431C15.5747 4.83019 15.5978 4.70922 15.5966 4.58726C15.5953 4.46531 15.5698 4.34483 15.5214 4.23288C15.473 4.12093 15.4028 4.01976 15.3148 3.9353L11.6481 0.268644C11.5614 0.181944 11.4583 0.113506 11.3447 0.0673787C11.2311 0.021251 11.1094 -0.0016297 10.9869 9.02451e-05ZM3.36111 6.72228C1.51569 6.72228 0 8.23797 0 10.0834V18.6389C0 20.4843 1.51569 22 3.36111 22H18.6389C20.4843 22 22 20.4843 22 18.6389V10.0834C22 8.23797 20.4843 6.72228 18.6389 6.72228H17.4167C17.2952 6.72057 17.1746 6.74301 17.0619 6.7883C16.9492 6.8336 16.8466 6.90085 16.7601 6.98614C16.6736 7.07143 16.6049 7.17306 16.558 7.28513C16.5111 7.3972 16.4869 7.51747 16.4869 7.63895C16.4869 7.76043 16.5111 7.8807 16.558 7.99277C16.6049 8.10484 16.6736 8.20647 16.7601 8.29176C16.8466 8.37705 16.9492 8.4443 17.0619 8.48959C17.1746 8.53489 17.2952 8.55733 17.4167 8.55561H18.6389C19.4934 8.55561 20.1667 9.22891 20.1667 10.0834V18.6389C20.1667 19.4934 19.4934 20.1667 18.6389 20.1667H3.36111C2.50664 20.1667 1.83333 19.4934 1.83333 18.6389V10.0834C1.83333 9.22891 2.50664 8.55561 3.36111 8.55561H4.58333C4.7048 8.55733 4.8254 8.53489 4.93812 8.48959C5.05084 8.4443 5.15344 8.37705 5.23994 8.29176C5.32645 8.20647 5.39514 8.10484 5.44203 7.99277C5.48891 7.8807 5.51306 7.76043 5.51306 7.63895C5.51306 7.51747 5.48891 7.3972 5.44203 7.28513C5.39514 7.17306 5.32645 7.07143 5.23994 6.98614C5.15344 6.90085 5.05084 6.8336 4.93812 6.7883C4.8254 6.74301 4.7048 6.72057 4.58333 6.72228H3.36111Z" fill="#BDBDBD"/>
</svg>
