<svg width="17" height="20" viewBox="0 0 17 20" fill="none" xmlns="http://www.w3.org/2000/svg">
<path d="M8.5 0.650024C5.22285 0.650024 2.55 3.32288 2.55 6.60002C2.55 8.64866 3.5959 10.4682 5.17969 11.5406C2.14824 12.8422 0 15.8504 0 19.35H1.7C1.7 16.893 2.99824 14.7547 4.94063 13.5594C5.51172 14.9606 6.90293 15.95 8.5 15.95C10.0971 15.95 11.4883 14.9606 12.0594 13.5594C14.0018 14.7547 15.3 16.893 15.3 19.35H17C17 15.8504 14.8518 12.8422 11.8203 11.5406C13.4041 10.4682 14.45 8.64866 14.45 6.60002C14.45 3.32288 11.7771 0.650024 8.5 0.650024ZM8.5 2.35002C10.8574 2.35002 12.75 4.2426 12.75 6.60002C12.75 8.95745 10.8574 10.85 8.5 10.85C6.14258 10.85 4.25 8.95745 4.25 6.60002C4.25 4.2426 6.14258 2.35002 8.5 2.35002ZM8.5 12.55C9.19727 12.55 9.86133 12.6496 10.4922 12.8422C10.1967 13.6623 9.42637 14.25 8.5 14.25C7.57363 14.25 6.80332 13.6623 6.50781 12.8422C7.13867 12.6496 7.80273 12.55 8.5 12.55Z" fill="#333333"/>
</svg>
