<svg width="37" height="36" viewBox="0 0 37 36" fill="none" xmlns="http://www.w3.org/2000/svg">
<path d="M33.3511 12.6553H2.97778V34.9526H33.3511V12.6553Z" fill="white"/>
<path d="M33.3511 1.20532H2.97778V12.0527H33.3511V1.20532Z" fill="white"/>
<path d="M36.3288 8.43701H33.9465V16.2712H36.3288V8.43701Z" fill="white"/>
<path d="M3.57338 9.03955H1.19116V16.8738H3.57338V9.03955Z" fill="white"/>
<path d="M12.5067 19.2842H7.14673V23.5026H12.5067V19.2842Z" fill="url(#paint0_linear)"/>
<path d="M20.8444 19.2842H15.4844V23.5026H20.8444V19.2842Z" fill="url(#paint1_linear)"/>
<path d="M20.8444 26.5159H15.4844V30.7343H20.8444V26.5159Z" fill="url(#paint2_linear)"/>
<path d="M29.7777 19.887H24.4177V30.7343H29.7777V19.887Z" fill="url(#paint3_linear)"/>
<path d="M12.5067 26.5159H7.14673V30.7343H12.5067V26.5159Z" fill="url(#paint4_linear)"/>
<path d="M4.26953 -0.000142356C3.98783 -0.00528996 3.70799 0.0470589 3.44672 0.153778C3.18546 0.260497 2.94813 0.419398 2.7489 0.620991C2.54968 0.822585 2.39264 1.06274 2.28718 1.32711C2.18171 1.59147 2.12998 1.87464 2.13506 2.15969V7.91964H1.42338C1.04607 7.92028 0.684391 8.07223 0.417592 8.3422C0.150794 8.61216 0.000629899 8.97814 0 9.35993V15.1199C0.000629899 15.5017 0.150794 15.8676 0.417592 16.1376C0.684391 16.4076 1.04607 16.5595 1.42338 16.5602H2.13506V33.84C2.12998 34.1251 2.18171 34.4082 2.28718 34.6726C2.39264 34.937 2.54968 35.1771 2.7489 35.3787C2.94813 35.5803 3.18546 35.7392 3.44672 35.8459C3.70799 35.9527 3.98783 36.005 4.26953 35.9999H32.7311C33.0128 36.005 33.2926 35.9527 33.5539 35.8459C33.8151 35.7392 34.0525 35.5803 34.2517 35.3787C34.4509 35.1771 34.608 34.937 34.7134 34.6726C34.8189 34.4082 34.8706 34.1251 34.8655 33.84V16.5596H35.5772C35.9545 16.5589 36.3162 16.407 36.583 16.137C36.8498 15.867 37 15.5011 37.0006 15.1193V9.35993C37.0062 9.16925 36.9732 8.97942 36.9037 8.80212C36.8341 8.62481 36.7295 8.46376 36.5962 8.32887C36.4629 8.19398 36.3037 8.0881 36.1285 8.01772C35.9533 7.94735 35.7657 7.91397 35.5772 7.91964H34.8655V2.15969C34.8706 1.87464 34.8189 1.59147 34.7134 1.32711C34.608 1.06274 34.4509 0.822585 34.2517 0.620991C34.0525 0.419398 33.8151 0.260497 33.5539 0.153778C33.2926 0.0470589 33.0128 -0.00528996 32.7311 -0.000142356H4.26953ZM4.26953 1.44015H32.7311C32.8261 1.43415 32.9212 1.44867 33.0103 1.48273C33.0993 1.5168 33.1802 1.56964 33.2475 1.63775C33.3148 1.70586 33.367 1.78767 33.4007 1.87776C33.4343 1.96785 33.4487 2.06416 33.4428 2.16029V11.5198H3.55784V2.15969C3.552 2.06361 3.56641 1.96737 3.60012 1.87735C3.63383 1.78733 3.68606 1.70559 3.75336 1.63755C3.82066 1.56951 3.90148 1.51673 3.99047 1.48269C4.07946 1.44866 4.17458 1.43416 4.26953 1.44015ZM19.9237 3.63674C19.7966 3.63488 19.672 3.67208 19.5663 3.7434L18.143 4.46355C18.0588 4.50142 17.9829 4.55569 17.9194 4.62326C17.856 4.69083 17.8064 4.77038 17.7733 4.85737C17.7403 4.94436 17.7245 5.03708 17.7268 5.13025C17.7292 5.22341 17.7497 5.31519 17.7871 5.40034C17.8245 5.48549 17.8782 5.56235 17.945 5.62653C18.0117 5.69071 18.0904 5.74096 18.1763 5.77439C18.2623 5.80783 18.3539 5.8238 18.446 5.8214C18.5381 5.819 18.6288 5.79828 18.7129 5.76041L19.0702 5.54407V8.64039C19.0702 8.83138 19.1452 9.01455 19.2787 9.14961C19.4122 9.28466 19.5932 9.36053 19.7819 9.36053C19.9707 9.36053 20.1517 9.28466 20.2852 9.14961C20.4186 9.01455 20.4936 8.83138 20.4936 8.64039V4.32012C20.5227 4.26911 20.5402 4.21223 20.545 4.15354C20.5498 4.09486 20.5417 4.03584 20.5212 3.98071C20.5008 3.92558 20.4685 3.87571 20.4268 3.83468C20.3851 3.79365 20.3349 3.76248 20.2798 3.7434C20.1744 3.67198 20.05 3.63458 19.9231 3.63614L19.9237 3.63674ZM29.1738 3.63674C29.0468 3.63488 28.9222 3.67208 28.8165 3.7434L27.3955 4.46355C27.2255 4.54003 27.0926 4.68169 27.0258 4.85737C26.9591 5.03305 26.9641 5.22836 27.0397 5.40034C27.1152 5.57231 27.2552 5.70686 27.4289 5.77439C27.6025 5.84192 27.7955 5.83689 27.9654 5.76041L28.3228 5.54407V8.64039C28.3228 8.83138 28.3978 9.01455 28.5312 9.14961C28.6647 9.28466 28.8457 9.36053 29.0345 9.36053C29.2232 9.36053 29.4042 9.28466 29.5377 9.14961C29.6712 9.01455 29.7461 8.83138 29.7461 8.64039V4.32012C29.7752 4.26911 29.7928 4.21223 29.7975 4.15354C29.8023 4.09486 29.7942 4.03584 29.7738 3.98071C29.7533 3.92558 29.7211 3.87571 29.6793 3.83468C29.6376 3.79365 29.5874 3.76248 29.5323 3.7434C29.4262 3.67151 29.3009 3.63409 29.1732 3.63614L29.1738 3.63674ZM24.1932 4.32012C24.0982 4.31412 24.003 4.32864 23.914 4.36271C23.825 4.39678 23.7441 4.44962 23.6768 4.51773C23.6095 4.58583 23.5573 4.66765 23.5236 4.75774C23.4899 4.84783 23.4756 4.94414 23.4815 5.04027V5.76041H22.7692C22.5805 5.76041 22.3995 5.83628 22.266 5.97134C22.1325 6.10639 22.0575 6.28956 22.0575 6.48056C22.0575 6.67155 22.1325 6.85472 22.266 6.98978C22.3995 7.12483 22.5805 7.2007 22.7692 7.2007H23.4809V7.92085C23.4809 8.11184 23.5559 8.29501 23.6894 8.43006C23.8228 8.56512 24.0039 8.64099 24.1926 8.64099C24.3814 8.64099 24.5624 8.56512 24.6958 8.43006C24.8293 8.29501 24.9043 8.11184 24.9043 7.92085V7.2001H25.616C25.8047 7.2001 25.9858 7.12423 26.1192 6.98917C26.2527 6.85412 26.3277 6.67095 26.3277 6.47995C26.3277 6.28896 26.2527 6.10579 26.1192 5.97073C25.9858 5.83568 25.8047 5.75981 25.616 5.75981H24.9037V5.03967C24.9095 4.94364 24.8951 4.84745 24.8615 4.75748C24.8278 4.6675 24.7756 4.5858 24.7084 4.51777C24.6411 4.44974 24.5604 4.39694 24.4715 4.36286C24.3826 4.32879 24.2875 4.31422 24.1926 4.32012H24.1932ZM1.42338 9.35993H2.13506V15.1199H1.42338V9.35993ZM34.8661 9.35993H35.5778V15.1199H34.8655L34.8661 9.35993ZM3.55784 12.96H33.4428V33.84C33.4487 33.9362 33.4343 34.0325 33.4007 34.1226C33.367 34.2126 33.3148 34.2945 33.2475 34.3626C33.1802 34.4307 33.0993 34.4835 33.0103 34.5176C32.9212 34.5516 32.8261 34.5662 32.7311 34.5602H4.26953C4.17453 34.5662 4.07935 34.5516 3.99032 34.5176C3.90129 34.4835 3.82043 34.4307 3.75313 34.3626C3.68582 34.2945 3.6336 34.2126 3.59993 34.1226C3.56626 34.0325 3.55191 33.9362 3.55784 33.84V12.96ZM7.82737 14.4003C7.73237 14.3943 7.63719 14.4089 7.54816 14.4429C7.45913 14.477 7.37827 14.5298 7.31097 14.5979C7.24366 14.6661 7.19144 14.7479 7.15777 14.838C7.1241 14.928 7.10975 15.0244 7.11568 15.1205V16.5608C7.11568 16.7518 7.19066 16.9349 7.32413 17.07C7.4576 17.205 7.63862 17.2809 7.82737 17.2809C8.01612 17.2809 8.19714 17.205 8.33061 17.07C8.46408 16.9349 8.53906 16.7518 8.53906 16.5608V15.1199C8.54455 15.0239 8.52987 14.9279 8.49597 14.8381C8.46207 14.7484 8.40972 14.6669 8.3424 14.5991C8.27508 14.5313 8.1943 14.4788 8.10542 14.4449C8.01653 14.4111 7.92156 14.3967 7.82677 14.4027L7.82737 14.4003ZM11.3852 14.4003C11.2902 14.3943 11.195 14.4089 11.106 14.4429C11.017 14.477 10.9361 14.5298 10.8688 14.5979C10.8015 14.6661 10.7493 14.7479 10.7156 14.838C10.6819 14.928 10.6676 15.0244 10.6735 15.1205V16.5608C10.6735 16.7518 10.7485 16.9349 10.882 17.07C11.0154 17.205 11.1965 17.2809 11.3852 17.2809C11.574 17.2809 11.755 17.205 11.8885 17.07C12.0219 16.9349 12.0969 16.7518 12.0969 16.5608V15.1199C12.1024 15.0239 12.0877 14.9279 12.0538 14.8381C12.0199 14.7484 11.9676 14.6669 11.9002 14.5991C11.8329 14.5313 11.7521 14.4788 11.6633 14.4449C11.5744 14.4111 11.4794 14.3967 11.3846 14.4027L11.3852 14.4003ZM14.9431 14.4003C14.8483 14.3947 14.7534 14.4095 14.6647 14.4437C14.576 14.4779 14.4955 14.5307 14.4285 14.5987C14.3614 14.6667 14.3094 14.7483 14.2759 14.8382C14.2423 14.928 14.2279 15.024 14.2337 15.1199V16.5602C14.2337 16.7512 14.3087 16.9343 14.4422 17.0694C14.5757 17.2044 14.7567 17.2803 14.9454 17.2803C15.1342 17.2803 15.3152 17.2044 15.4487 17.0694C15.5821 16.9343 15.6571 16.7512 15.6571 16.5602V15.1199C15.6627 15.0237 15.6479 14.9275 15.6139 14.8375C15.5798 14.7476 15.5273 14.666 15.4597 14.5982C15.3921 14.5303 15.311 14.4778 15.2218 14.4442C15.1327 14.4105 15.0374 14.3963 14.9425 14.4027L14.9431 14.4003ZM18.5009 14.4003C18.4059 14.3943 18.3107 14.4089 18.2217 14.4429C18.1327 14.477 18.0518 14.5298 17.9845 14.5979C17.9172 14.6661 17.865 14.7479 17.8313 14.838C17.7976 14.928 17.7833 15.0244 17.7892 15.1205V16.5608C17.7892 16.7518 17.8642 16.9349 17.9977 17.07C18.1311 17.205 18.3121 17.2809 18.5009 17.2809C18.6896 17.2809 18.8707 17.205 19.0041 17.07C19.1376 16.9349 19.2126 16.7518 19.2126 16.5608V15.1199C19.2181 15.0239 19.2034 14.9279 19.1695 14.8381C19.1356 14.7484 19.0832 14.6669 19.0159 14.5991C18.9486 14.5313 18.8678 14.4788 18.7789 14.4449C18.6901 14.4111 18.5951 14.3967 18.5003 14.4027L18.5009 14.4003ZM22.0587 14.4003C21.9637 14.3943 21.8686 14.4089 21.7795 14.4429C21.6905 14.477 21.6096 14.5298 21.5423 14.5979C21.475 14.6661 21.4228 14.7479 21.3891 14.838C21.3555 14.928 21.3411 15.0244 21.347 15.1205V16.5608C21.347 16.7518 21.422 16.9349 21.5555 17.07C21.689 17.205 21.87 17.2809 22.0587 17.2809C22.2475 17.2809 22.4285 17.205 22.562 17.07C22.6954 16.9349 22.7704 16.7518 22.7704 16.5608V15.1199C22.7759 15.0239 22.7612 14.9278 22.7273 14.838C22.6934 14.7482 22.641 14.6667 22.5736 14.5989C22.5062 14.5311 22.4253 14.4785 22.3364 14.4447C22.2474 14.4109 22.1524 14.3966 22.0575 14.4027L22.0587 14.4003ZM25.6166 14.4003C25.5216 14.3943 25.4264 14.4089 25.3374 14.4429C25.2483 14.477 25.1675 14.5298 25.1002 14.5979C25.0329 14.6661 24.9806 14.7479 24.947 14.838C24.9133 14.928 24.899 15.0244 24.9049 15.1205V16.5608C24.9049 16.7518 24.9799 16.9349 25.1133 17.07C25.2468 17.205 25.4278 17.2809 25.6166 17.2809C25.8053 17.2809 25.9863 17.205 26.1198 17.07C26.2533 16.9349 26.3283 16.7518 26.3283 16.5608V15.1199C26.3338 15.0239 26.3191 14.9278 26.2851 14.838C26.2512 14.7482 26.1988 14.6667 26.1314 14.5989C26.064 14.5311 25.9832 14.4785 25.8942 14.4447C25.8053 14.4109 25.7102 14.3966 25.6154 14.4027L25.6166 14.4003ZM29.1744 14.4003C29.0794 14.3942 28.9841 14.4085 28.895 14.4425C28.8059 14.4764 28.7249 14.5292 28.6575 14.5973C28.59 14.6653 28.5377 14.7471 28.5039 14.8372C28.4701 14.9273 28.4557 15.0237 28.4615 15.1199V16.5602C28.4615 16.7512 28.5365 16.9343 28.67 17.0694C28.8035 17.2044 28.9845 17.2803 29.1732 17.2803C29.362 17.2803 29.543 17.2044 29.6765 17.0694C29.8099 16.9343 29.8849 16.7512 29.8849 16.5602V15.1199C29.8904 15.024 29.8757 14.928 29.8419 14.8383C29.808 14.7486 29.7557 14.6671 29.6885 14.5994C29.6212 14.5316 29.5405 14.479 29.4517 14.4451C29.3629 14.4112 29.268 14.3968 29.1732 14.4027L29.1744 14.4003ZM7.82677 18.72C7.44947 18.7206 7.08779 18.8726 6.82099 19.1426C6.55419 19.4125 6.40403 19.7785 6.4034 20.1603V23.0403C6.40403 23.4221 6.55419 23.788 6.82099 24.058C7.08779 24.328 7.44947 24.4799 7.82677 24.4806H12.0963C12.4736 24.4799 12.8353 24.328 13.1021 24.058C13.3689 23.788 13.519 23.4221 13.5197 23.0403V20.1597C13.519 19.7779 13.3689 19.4119 13.1021 19.142C12.8353 18.872 12.4736 18.72 12.0963 18.7194L7.82677 18.72ZM16.3652 18.72C15.9879 18.7206 15.6263 18.8726 15.3595 19.1426C15.0927 19.4125 14.9425 19.7785 14.9419 20.1603V23.0403C14.9425 23.4221 15.0927 23.788 15.3595 24.058C15.6263 24.328 15.9879 24.4799 16.3652 24.4806H20.6348C21.0121 24.4799 21.3738 24.328 21.6405 24.058C21.9073 23.788 22.0575 23.4221 22.0581 23.0403V20.1597C22.0575 19.7779 21.9073 19.4119 21.6405 19.142C21.3738 18.872 21.0121 18.72 20.6348 18.7194L16.3652 18.72ZM24.9037 18.72C24.5264 18.7206 24.1647 18.8726 23.8979 19.1426C23.6311 19.4125 23.481 19.7785 23.4803 20.1603V30.2399C23.481 30.6217 23.6311 30.9877 23.8979 31.2576C24.1647 31.5276 24.5264 31.6796 24.9037 31.6802H29.1732C29.5505 31.6796 29.9122 31.5276 30.179 31.2576C30.4458 30.9877 30.596 30.6217 30.5966 30.2399V20.1597C30.596 19.7779 30.4458 19.4119 30.179 19.142C29.9122 18.872 29.5505 18.72 29.1732 18.7194L24.9037 18.72ZM7.82677 20.1603H12.0963V23.0403H7.82677V20.1603ZM16.3652 20.1603H20.6348V23.0403H16.3652V20.1603ZM24.9037 20.1603H29.1732V30.2399H24.9037V20.1603ZM7.82677 25.9196C7.44947 25.9203 7.08779 26.0722 6.82099 26.3422C6.55419 26.6122 6.40403 26.9781 6.4034 27.3599V30.2399C6.40403 30.6217 6.55419 30.9877 6.82099 31.2576C7.08779 31.5276 7.44947 31.6796 7.82677 31.6802H12.0963C12.4736 31.6796 12.8353 31.5276 13.1021 31.2576C13.3689 30.9877 13.519 30.6217 13.5197 30.2399V27.3593C13.519 26.9775 13.3689 26.6116 13.1021 26.3416C12.8353 26.0716 12.4736 25.9197 12.0963 25.919L7.82677 25.9196ZM16.3652 25.9196C15.9879 25.9203 15.6263 26.0722 15.3595 26.3422C15.0927 26.6122 14.9425 26.9781 14.9419 27.3599V30.2399C14.9425 30.6217 15.0927 30.9877 15.3595 31.2576C15.6263 31.5276 15.9879 31.6796 16.3652 31.6802H20.6348C21.0121 31.6796 21.3738 31.5276 21.6405 31.2576C21.9073 30.9877 22.0575 30.6217 22.0581 30.2399V27.3593C22.0575 26.9775 21.9073 26.6116 21.6405 26.3416C21.3738 26.0716 21.0121 25.9197 20.6348 25.919L16.3652 25.9196ZM7.82677 27.3593H12.0963V30.2399H7.82677V27.3593ZM16.3652 27.3593H20.6348V30.2399H16.3652V27.3593Z" fill="#4F4F4F"/>
<defs>
<linearGradient id="paint0_linear" x1="7.6253" y1="19.9872" x2="12.3908" y2="20.2098" gradientUnits="userSpaceOnUse">
<stop stop-color="#3565C3"/>
<stop offset="1" stop-color="#2B1485"/>
</linearGradient>
<linearGradient id="paint1_linear" x1="15.9629" y1="19.9872" x2="20.7284" y2="20.2098" gradientUnits="userSpaceOnUse">
<stop stop-color="#3565C3"/>
<stop offset="1" stop-color="#2B1485"/>
</linearGradient>
<linearGradient id="paint2_linear" x1="15.9629" y1="27.2189" x2="20.7284" y2="27.4415" gradientUnits="userSpaceOnUse">
<stop stop-color="#3565C3"/>
<stop offset="1" stop-color="#2B1485"/>
</linearGradient>
<linearGradient id="paint3_linear" x1="24.8963" y1="21.6949" x2="29.6706" y2="21.7816" gradientUnits="userSpaceOnUse">
<stop stop-color="#3565C3"/>
<stop offset="1" stop-color="#2B1485"/>
</linearGradient>
<linearGradient id="paint4_linear" x1="7.6253" y1="27.2189" x2="12.3908" y2="27.4415" gradientUnits="userSpaceOnUse">
<stop stop-color="#3565C3"/>
<stop offset="1" stop-color="#2B1485"/>
</linearGradient>
</defs>
</svg>
