<svg width="368" height="146" viewBox="0 0 368 146" fill="none" xmlns="http://www.w3.org/2000/svg">
<g filter="url(#filter0_f)">
<path d="M269.138 18.2583C272.527 18.2583 275.275 15.5142 275.275 12.1291C275.275 8.74411 272.527 6 269.138 6C265.748 6 263 8.74411 263 12.1291C263 15.5142 265.748 18.2583 269.138 18.2583Z" fill="#F04F62" fill-opacity="0.2"/>
<path d="M84.5 28.993C85.8807 28.993 87 27.8753 87 26.4965C87 25.1177 85.8807 24 84.5 24C83.1194 24 82 25.1177 82 26.4965C82 27.8753 83.1194 28.993 84.5 28.993Z" fill="#F04F62"/>
<path d="M351.138 30.2583C354.527 30.2583 357.275 27.5142 357.275 24.1291C357.275 20.7441 354.527 18 351.138 18C347.748 18 345 20.7441 345 24.1291C345 27.5142 347.748 30.2583 351.138 30.2583Z" fill="#F04F62"/>
<path d="M246.5 63.993C247.881 63.993 249 62.8753 249 61.4965C249 60.1177 247.881 59 246.5 59C245.119 59 244 60.1177 244 61.4965C244 62.8753 245.119 63.993 246.5 63.993Z" fill="#F04F62" fill-opacity="0.17"/>
<path d="M287.5 79.9902C289.433 79.9902 291 78.4254 291 76.4951C291 74.5648 289.433 73 287.5 73C285.567 73 284 74.5648 284 76.4951C284 78.4254 285.567 79.9902 287.5 79.9902Z" fill="#F04F62"/>
<path d="M357.138 97.2583C360.527 97.2583 363.275 94.5142 363.275 91.1291C363.275 87.7441 360.527 85 357.138 85C353.748 85 351 87.7441 351 91.1291C351 94.5142 353.748 97.2583 357.138 97.2583Z" fill="#F04F62" fill-opacity="0.2"/>
<path d="M116 124C118.209 124 120 122.209 120 120C120 117.791 118.209 116 116 116C113.791 116 112 117.791 112 120C112 122.209 113.791 124 116 124Z" fill="#F04F62" fill-opacity="0.2"/>
<path d="M135.054 53.0934C137.845 53.0934 140.107 50.8341 140.107 48.0461C140.107 45.2593 137.845 43 135.054 43C132.263 43 130 45.2593 130 48.0461C130 50.8341 132.263 53.0934 135.054 53.0934Z" fill="#F04F62"/>
<path d="M292.054 131.093C294.845 131.093 297.107 128.834 297.107 126.046C297.107 123.259 294.845 121 292.054 121C289.263 121 287 123.259 287 126.046C287 128.834 289.263 131.093 292.054 131.093Z" fill="#F04F62"/>
<path d="M9.05377 141.093C11.8449 141.093 14.1076 138.834 14.1076 136.046C14.1076 133.259 11.8449 131 9.05377 131C6.26266 131 4 133.259 4 136.046C4 138.834 6.26266 141.093 9.05377 141.093Z" fill="#F04F62"/>
<path d="M52.0538 85.0934C54.8449 85.0934 57.1076 82.8341 57.1076 80.0462C57.1076 77.2593 54.8449 75 52.0538 75C49.2627 75 47 77.2593 47 80.0462C47 82.8341 49.2627 85.0934 52.0538 85.0934Z" fill="#F04F62"/>
<path d="M19.0542 14.0935C21.8445 14.0935 24.1073 11.8341 24.1073 9.0473C24.1073 6.25932 21.8445 4 19.0542 4C16.2628 4 14 6.25932 14 9.0473C14 11.8341 16.2628 14.0935 19.0542 14.0935Z" fill="#F04F62" fill-opacity="0.2"/>
<path d="M14.0542 101.093C16.8445 101.093 19.1073 98.8341 19.1073 96.0473C19.1073 93.2593 16.8445 91 14.0542 91C11.2628 91 9 93.2593 9 96.0473C9 98.8341 11.2628 101.093 14.0542 101.093Z" fill="#F04F62" fill-opacity="0.2"/>
</g>
<defs>
<filter id="filter0_f" x="0" y="0" width="367.275" height="145.093" filterUnits="userSpaceOnUse" color-interpolation-filters="sRGB">
<feFlood flood-opacity="0" result="BackgroundImageFix"/>
<feBlend mode="normal" in="SourceGraphic" in2="BackgroundImageFix" result="shape"/>
<feGaussianBlur stdDeviation="2" result="effect1_foregroundBlur"/>
</filter>
</defs>
</svg>
