<svg width="175" height="67" viewBox="0 0 175 67" fill="none" xmlns="http://www.w3.org/2000/svg">
<rect width="175" height="67" rx="3" fill="#030A19"/>
<path d="M130.044 18.2161C129.722 18.2995 129.495 18.5777 129.495 19.0563C129.495 20.4609 129.495 33.7064 129.495 33.7064C129.495 33.7064 129.495 48.0206 129.495 48.6527C129.495 49.0004 129.648 49.2334 129.885 49.3199L145.615 33.6807L130.044 18.2161Z" fill="#00D3FF"/>
<path d="M149.946 29.3745L143.471 25.6361C143.471 25.6361 131.588 18.7745 130.889 18.3715C130.587 18.1969 130.289 18.1509 130.044 18.2148L145.616 33.6795L149.946 29.3745Z" fill="#00EF77"/>
<path d="M130.599 49.2057C131.014 48.9656 142.513 42.3269 149.981 38.0148L145.615 33.6794L129.885 49.3187C130.078 49.3896 130.326 49.3631 130.599 49.2057Z" fill="#D32F2F"/>
<path d="M156.307 33.0466C155.686 32.7122 149.993 29.4018 149.993 29.4018L149.946 29.3745L145.615 33.6795L149.981 38.0149C153.435 36.0203 156.03 34.5229 156.263 34.388C156.998 33.964 156.927 33.381 156.307 33.0466Z" fill="#FBC02D"/>
<path d="M22.3036 24.9441C22.6236 24.9441 22.8476 24.8761 22.9756 24.7401C23.1036 24.6041 23.1676 24.4721 23.1676 24.3441C23.1676 24.2721 23.1516 24.1761 23.1196 24.0561C23.0956 23.9361 23.0436 23.7521 22.9636 23.5041C22.8836 23.2561 22.7676 22.9241 22.6156 22.5081C22.4636 22.0841 22.2676 21.5361 22.0276 20.8641L22.9636 20.4801L24.2236 24.0441C24.3356 24.3721 24.4676 24.6041 24.6196 24.7401C24.7716 24.8761 24.9956 24.9441 25.2916 24.9441H25.4476C25.6236 24.9441 25.7116 25.1161 25.7116 25.4601C25.7116 25.8201 25.6236 26.0001 25.4476 26.0001H25.2916C25.0276 26.0001 24.7716 25.9521 24.5236 25.8561C24.2836 25.7601 24.0636 25.5481 23.8636 25.2201C23.6956 25.5241 23.4836 25.7321 23.2276 25.8441C22.9796 25.9481 22.7076 26.0001 22.4116 26.0001H19.8316L19.7716 24.9441H22.3036ZM26.6865 24.9441C26.9745 24.9441 27.1985 24.8681 27.3585 24.7161C27.5265 24.5641 27.6105 24.3481 27.6105 24.0681V22.5321H28.5945V24.1161C28.5945 24.7241 28.4305 25.1921 28.1025 25.5201C27.7825 25.8401 27.3345 26.0001 26.7585 26.0001H25.5945C25.4905 26.0001 25.4225 25.9601 25.3905 25.8801C25.3505 25.7921 25.3305 25.6641 25.3305 25.4961C25.3305 25.3041 25.3505 25.1641 25.3905 25.0761C25.4225 24.9881 25.4905 24.9441 25.5945 24.9441H26.6865ZM28.3425 28.3761H27.2865V27.3681H28.3425V28.3761ZM26.7105 28.3761H25.6425V27.3681H26.7105V28.3761ZM31.1408 27.8601C31.4688 27.8601 31.7568 27.8081 32.0048 27.7041C32.2528 27.6081 32.4568 27.4761 32.6168 27.3081C32.7848 27.1401 32.9128 26.9441 33.0008 26.7201C33.0888 26.4961 33.1408 26.2561 33.1568 26.0001H32.1368C31.7288 26.0001 31.3928 25.9561 31.1288 25.8681C30.8648 25.7801 30.6568 25.6521 30.5048 25.4841C30.3528 25.3161 30.2448 25.1121 30.1808 24.8721C30.1248 24.6241 30.0968 24.3481 30.0968 24.0441C30.0968 23.7401 30.1408 23.4521 30.2288 23.1801C30.3168 22.9001 30.4448 22.6561 30.6128 22.4481C30.7808 22.2401 30.9888 22.0761 31.2368 21.9561C31.4928 21.8281 31.7888 21.7641 32.1248 21.7641C32.3888 21.7641 32.6408 21.8081 32.8808 21.8961C33.1288 21.9841 33.3448 22.1241 33.5288 22.3161C33.7128 22.5001 33.8568 22.7441 33.9608 23.0481C34.0728 23.3521 34.1288 23.7201 34.1288 24.1521V25.8081C34.1288 26.2161 34.0608 26.6081 33.9248 26.9841C33.7968 27.3601 33.6048 27.6881 33.3488 27.9681C33.1008 28.2561 32.7968 28.4841 32.4368 28.6521C32.0768 28.8201 31.6688 28.9041 31.2128 28.9041H29.9648L29.8928 27.8601H31.1408ZM31.0328 23.9841C31.0328 24.3281 31.1128 24.5761 31.2728 24.7281C31.4408 24.8721 31.7608 24.9441 32.2328 24.9441H33.1808V24.2001C33.1808 23.6961 33.0808 23.3361 32.8808 23.1201C32.6888 22.8961 32.4168 22.7841 32.0648 22.7841C31.7368 22.7841 31.4808 22.8921 31.2968 23.1081C31.1208 23.3161 31.0328 23.6081 31.0328 23.9841ZM33.8017 27.8601H34.0057C34.3737 27.8601 34.6857 27.8001 34.9417 27.6801C35.2057 27.5681 35.4217 27.4161 35.5897 27.2241C35.7577 27.0321 35.8817 26.8121 35.9617 26.5641C36.0417 26.3241 36.0817 26.0721 36.0817 25.8081V22.5321H37.0657V25.8081C37.0657 26.2561 36.9897 26.6681 36.8377 27.0441C36.6937 27.4281 36.4897 27.7561 36.2257 28.0281C35.9697 28.3081 35.6657 28.5241 35.3137 28.6761C34.9697 28.8281 34.5937 28.9041 34.1857 28.9041H33.8617L33.8017 27.8601ZM41.4544 24.9441C41.7744 24.9441 41.9984 24.8761 42.1264 24.7401C42.2544 24.6041 42.3184 24.4721 42.3184 24.3441C42.3184 24.2721 42.3024 24.1761 42.2704 24.0561C42.2464 23.9361 42.1944 23.7521 42.1144 23.5041C42.0344 23.2561 41.9184 22.9241 41.7664 22.5081C41.6144 22.0841 41.4184 21.5361 41.1784 20.8641L42.1144 20.4801L43.3744 24.0441C43.4864 24.3721 43.6184 24.6041 43.7704 24.7401C43.9224 24.8761 44.1464 24.9441 44.4424 24.9441H44.5984C44.7744 24.9441 44.8624 25.1161 44.8624 25.4601C44.8624 25.8201 44.7744 26.0001 44.5984 26.0001H44.4424C44.1784 26.0001 43.9224 25.9521 43.6744 25.8561C43.4344 25.7601 43.2144 25.5481 43.0144 25.2201C42.8464 25.5241 42.6344 25.7321 42.3784 25.8441C42.1304 25.9481 41.8584 26.0001 41.5624 26.0001H38.9824L38.9224 24.9441H41.4544ZM45.8373 24.9441C46.1253 24.9441 46.3493 24.8681 46.5093 24.7161C46.6773 24.5641 46.7613 24.3481 46.7613 24.0681V22.5321H47.7453V24.1161C47.7453 24.7241 47.5813 25.1921 47.2533 25.5201C46.9333 25.8401 46.4853 26.0001 45.9093 26.0001H44.7453C44.6413 26.0001 44.5733 25.9601 44.5413 25.8801C44.5013 25.7921 44.4813 25.6641 44.4813 25.4961C44.4813 25.3041 44.5013 25.1641 44.5413 25.0761C44.5733 24.9881 44.6413 24.9441 44.7453 24.9441H45.8373ZM47.4093 21.0561H46.2333V20.0241H47.4093V21.0561ZM49.3556 18.5601H50.3396V26.0001H49.3556V18.5601ZM55.8149 24.5241C56.1829 24.5241 56.4709 24.4481 56.6789 24.2961C56.8869 24.1441 56.9909 23.9521 56.9909 23.7201V22.2201H55.9109C55.5269 22.2201 55.2429 22.3401 55.0589 22.5801C54.8749 22.8201 54.7829 23.1361 54.7829 23.5281C54.7829 23.8961 54.8669 24.1561 55.0349 24.3081C55.2029 24.4521 55.4629 24.5241 55.8149 24.5241ZM57.9389 23.9361C57.9389 24.2401 57.9989 24.4841 58.1189 24.6681C58.2469 24.8521 58.4629 24.9441 58.7669 24.9441H59.0069C59.1029 24.9441 59.1669 24.9881 59.1989 25.0761C59.2389 25.1561 59.2589 25.2841 59.2589 25.4601C59.2589 25.6441 59.2389 25.7801 59.1989 25.8681C59.1669 25.9561 59.1029 26.0001 59.0069 26.0001H58.7669C58.3829 26.0001 58.0589 25.9281 57.7949 25.7841C57.5389 25.6321 57.3509 25.3641 57.2309 24.9801C57.1349 25.1001 57.0189 25.1961 56.8829 25.2681C56.7549 25.3401 56.6189 25.3961 56.4749 25.4361C56.3309 25.4761 56.1829 25.5041 56.0309 25.5201C55.8789 25.5361 55.7389 25.5441 55.6109 25.5441C55.0349 25.5441 54.5949 25.3841 54.2909 25.0641C53.9869 24.7441 53.8349 24.2601 53.8349 23.6121C53.8349 23.3161 53.8749 23.0281 53.9549 22.7481C54.0429 22.4601 54.1709 22.2041 54.3389 21.9801C54.5069 21.7561 54.7149 21.5761 54.9629 21.4401C55.2189 21.3041 55.5149 21.2361 55.8509 21.2361H56.9909V20.4201H57.9389V23.9361ZM64.3937 24.2721C64.5217 24.5281 64.6617 24.7041 64.8137 24.8001C64.9737 24.8961 65.1817 24.9441 65.4377 24.9441H66.1817C66.2857 24.9441 66.3537 24.9881 66.3857 25.0761C66.4257 25.1561 66.4457 25.2841 66.4457 25.4601C66.4457 25.6441 66.4257 25.7801 66.3857 25.8681C66.3537 25.9561 66.2857 26.0001 66.1817 26.0001H65.3777C65.1137 26.0001 64.8897 25.9681 64.7057 25.9041C64.5217 25.8321 64.3657 25.7401 64.2377 25.6281C64.1097 25.5081 64.0017 25.3681 63.9137 25.2081C63.8337 25.0481 63.7617 24.8721 63.6977 24.6801L62.6177 25.3041C62.4097 25.4321 62.2057 25.5401 62.0057 25.6281C61.8057 25.7161 61.5897 25.7881 61.3577 25.8441C61.1337 25.9001 60.8857 25.9401 60.6137 25.9641C60.3417 25.9881 60.0297 26.0001 59.6777 26.0001H59.1617C59.0577 26.0001 58.9897 25.9601 58.9577 25.8801C58.9177 25.7921 58.8977 25.6641 58.8977 25.4961C58.8977 25.3041 58.9177 25.1641 58.9577 25.0761C58.9897 24.9881 59.0577 24.9441 59.1617 24.9441H59.7137C60.0177 24.9441 60.2857 24.9361 60.5177 24.9201C60.7577 24.9041 60.9777 24.8761 61.1777 24.8361C61.3777 24.7961 61.5657 24.7441 61.7417 24.6801C61.9177 24.6081 62.0977 24.5201 62.2817 24.4161L64.0697 23.3841C64.0057 23.2401 63.9417 23.1161 63.8777 23.0121C63.8217 22.9001 63.7457 22.8041 63.6497 22.7241C63.5537 22.6441 63.4377 22.5841 63.3017 22.5441C63.1657 22.5041 62.9937 22.4841 62.7857 22.4841H60.1697L60.2417 21.4281H62.9297C63.1457 21.4281 63.3617 21.4561 63.5777 21.5121C63.8017 21.5681 64.0097 21.6801 64.2017 21.8481C64.4017 22.0161 64.5857 22.2561 64.7537 22.5681C64.9217 22.8801 65.0617 23.2921 65.1737 23.8041L64.3937 24.2721ZM62.7497 20.1201H61.5737V19.0881H62.7497V20.1201ZM66.8113 24.9441C67.4433 24.9441 67.7593 24.6521 67.7593 24.0681V22.5321H68.7433V24.0681C68.7433 24.2281 68.7713 24.3641 68.8273 24.4761C68.8833 24.5881 68.9553 24.6801 69.0433 24.7521C69.1313 24.8161 69.2313 24.8641 69.3433 24.8961C69.4633 24.9281 69.5833 24.9441 69.7033 24.9441C70.3913 24.9441 70.7353 24.6521 70.7353 24.0681V22.5321H71.7193V24.0681C71.7193 24.3961 71.8033 24.6241 71.9713 24.7521C72.1473 24.8801 72.3513 24.9441 72.5833 24.9441C72.8633 24.9441 73.0793 24.8681 73.2313 24.7161C73.3913 24.5641 73.4713 24.3481 73.4713 24.0681V22.5321H74.4553V24.0681C74.4553 24.2281 74.4793 24.3641 74.5273 24.4761C74.5833 24.5881 74.6553 24.6801 74.7433 24.7521C74.8313 24.8161 74.9313 24.8641 75.0433 24.8961C75.1553 24.9281 75.2673 24.9441 75.3793 24.9441H75.6313C75.8073 24.9441 75.8953 25.1161 75.8953 25.4601C75.8953 25.8201 75.8073 26.0001 75.6313 26.0001H75.3793C75.0833 26.0001 74.8073 25.9481 74.5513 25.8441C74.3033 25.7401 74.0953 25.5361 73.9273 25.2321C73.7433 25.5361 73.5273 25.7401 73.2793 25.8441C73.0393 25.9481 72.8073 26.0001 72.5833 26.0001C72.3033 26.0001 72.0433 25.9481 71.8033 25.8441C71.5633 25.7401 71.3593 25.5361 71.1913 25.2321C71.0073 25.5361 70.7833 25.7401 70.5193 25.8441C70.2553 25.9481 69.9833 26.0001 69.7033 26.0001C69.3993 26.0001 69.1153 25.9481 68.8513 25.8441C68.5953 25.7401 68.3833 25.5361 68.2153 25.2321C68.0313 25.5361 67.8153 25.7401 67.5673 25.8441C67.3193 25.9481 67.0553 26.0001 66.7753 26.0001H66.3313C66.2273 26.0001 66.1593 25.9601 66.1273 25.8801C66.0873 25.7921 66.0673 25.6641 66.0673 25.4961C66.0673 25.3041 66.0873 25.1641 66.1273 25.0761C66.1593 24.9881 66.2273 24.9441 66.3313 24.9441H66.8113ZM76.8779 24.9441C77.1659 24.9441 77.3899 24.8681 77.5499 24.7161C77.7179 24.5641 77.8019 24.3481 77.8019 24.0681V22.5321H78.7859V24.1161C78.7859 24.7241 78.6219 25.1921 78.2939 25.5201C77.9739 25.8401 77.5259 26.0001 76.9499 26.0001H75.7859C75.6819 26.0001 75.6139 25.9601 75.5819 25.8801C75.5419 25.7921 75.5219 25.6641 75.5219 25.4961C75.5219 25.3041 75.5419 25.1641 75.5819 25.0761C75.6139 24.9881 75.6819 24.9441 75.7859 24.9441H76.8779ZM78.4499 21.0561H77.2739V20.0241H78.4499V21.0561ZM86.5037 23.0721C86.7117 23.3121 86.8637 23.5521 86.9597 23.7921C87.0557 24.0241 87.1037 24.2521 87.1037 24.4761C87.1037 24.6921 87.0637 24.8921 86.9837 25.0761C86.9037 25.2601 86.7877 25.4201 86.6357 25.5561C86.4917 25.6921 86.3077 25.8001 86.0837 25.8801C85.8597 25.9601 85.6037 26.0001 85.3157 26.0001H82.0277L81.9677 24.9441H85.1717C85.4277 24.9441 85.6237 24.8881 85.7597 24.7761C85.8957 24.6561 85.9637 24.5041 85.9637 24.3201C85.9637 24.1121 85.8717 23.9081 85.6877 23.7081L83.5517 21.2721L84.3197 20.5521L86.5037 23.0721ZM89.5775 27.8601C89.9055 27.8601 90.1935 27.8081 90.4415 27.7041C90.6895 27.6081 90.8935 27.4761 91.0535 27.3081C91.2215 27.1401 91.3495 26.9441 91.4375 26.7201C91.5255 26.4961 91.5775 26.2561 91.5935 26.0001H90.5735C90.1655 26.0001 89.8295 25.9561 89.5655 25.8681C89.3015 25.7801 89.0935 25.6521 88.9415 25.4841C88.7895 25.3161 88.6815 25.1121 88.6175 24.8721C88.5615 24.6241 88.5335 24.3481 88.5335 24.0441C88.5335 23.7401 88.5775 23.4521 88.6655 23.1801C88.7535 22.9001 88.8815 22.6561 89.0495 22.4481C89.2175 22.2401 89.4255 22.0761 89.6735 21.9561C89.9295 21.8281 90.2255 21.7641 90.5615 21.7641C90.8255 21.7641 91.0775 21.8081 91.3175 21.8961C91.5655 21.9841 91.7815 22.1241 91.9655 22.3161C92.1495 22.5001 92.2935 22.7441 92.3975 23.0481C92.5095 23.3521 92.5655 23.7201 92.5655 24.1521V24.9441H93.6335C93.7295 24.9441 93.7935 24.9881 93.8255 25.0761C93.8655 25.1561 93.8855 25.2841 93.8855 25.4601C93.8855 25.6441 93.8655 25.7801 93.8255 25.8681C93.7935 25.9561 93.7295 26.0001 93.6335 26.0001H92.5415C92.5255 26.3921 92.4455 26.7641 92.3015 27.1161C92.1655 27.4681 91.9735 27.7761 91.7255 28.0401C91.4775 28.3041 91.1775 28.5121 90.8255 28.6641C90.4735 28.8241 90.0815 28.9041 89.6495 28.9041H88.4015L88.3295 27.8601H89.5775ZM89.4695 23.9841C89.4695 24.3281 89.5495 24.5761 89.7095 24.7281C89.8775 24.8721 90.1975 24.9441 90.6695 24.9441H91.6175V24.2001C91.6175 23.6961 91.5175 23.3361 91.3175 23.1201C91.1255 22.8961 90.8535 22.7841 90.5015 22.7841C90.1735 22.7841 89.9175 22.8921 89.7335 23.1081C89.5575 23.3161 89.4695 23.6081 89.4695 23.9841ZM94.0883 24.9441C94.7043 24.9441 95.0123 24.6521 95.0123 24.0681V18.5601H95.9963V24.0681C95.9963 24.2281 96.0203 24.3641 96.0683 24.4761C96.1243 24.5881 96.1963 24.6801 96.2843 24.7521C96.3723 24.8161 96.4723 24.8641 96.5843 24.8961C96.7043 24.9281 96.8243 24.9441 96.9443 24.9441H97.1243C97.2283 24.9441 97.2963 24.9881 97.3283 25.0761C97.3683 25.1561 97.3883 25.2841 97.3883 25.4601C97.3883 25.6441 97.3683 25.7801 97.3283 25.8681C97.2963 25.9561 97.2283 26.0001 97.1243 26.0001H96.9083C96.6203 26.0001 96.3483 25.9481 96.0923 25.8441C95.8443 25.7401 95.6363 25.5361 95.4683 25.2321C95.2843 25.5361 95.0723 25.7401 94.8323 25.8441C94.5923 25.9481 94.3443 26.0001 94.0883 26.0001H93.7883C93.6843 26.0001 93.6163 25.9601 93.5843 25.8801C93.5443 25.7921 93.5243 25.6641 93.5243 25.4961C93.5243 25.3041 93.5443 25.1641 93.5843 25.0761C93.6163 24.9881 93.6843 24.9441 93.7883 24.9441H94.0883ZM98.3701 24.9441C98.6581 24.9441 98.8821 24.8681 99.0421 24.7161C99.2101 24.5641 99.2941 24.3481 99.2941 24.0681V22.5321H100.278V24.1161C100.278 24.7241 100.114 25.1921 99.7861 25.5201C99.4661 25.8401 99.0181 26.0001 98.4421 26.0001H97.2781C97.1741 26.0001 97.1061 25.9601 97.0741 25.8801C97.0341 25.7921 97.0141 25.6641 97.0141 25.4961C97.0141 25.3041 97.0341 25.1641 97.0741 25.0761C97.1061 24.9881 97.1741 24.9441 97.2781 24.9441H98.3701ZM99.9421 21.0561H98.7661V20.0241H99.9421V21.0561ZM101.888 18.5601H102.872V26.0001H101.888V18.5601ZM108.816 23.0721C109.024 23.3121 109.176 23.5521 109.272 23.7921C109.368 24.0241 109.416 24.2521 109.416 24.4761C109.416 24.6921 109.376 24.8921 109.296 25.0761C109.216 25.2601 109.1 25.4201 108.948 25.5561C108.804 25.6921 108.62 25.8001 108.396 25.8801C108.172 25.9601 107.916 26.0001 107.628 26.0001H104.34L104.28 24.9441H107.484C107.74 24.9441 107.936 24.8881 108.072 24.7761C108.208 24.6561 108.276 24.5041 108.276 24.3201C108.276 24.1121 108.184 23.9081 108 23.7081L105.864 21.2721L106.632 20.5521L108.816 23.0721Z" fill="white"/>
<path d="M21.9054 44.6721H25.4414V48.9601C24.8974 49.3655 24.3214 49.6588 23.7134 49.8401C23.1054 50.0215 22.4494 50.1121 21.7454 50.1121C20.8814 50.1121 20.0921 49.9788 19.3774 49.7121C18.6734 49.4455 18.0654 49.0721 17.5534 48.5921C17.0521 48.1121 16.6628 47.5415 16.3854 46.8801C16.1188 46.2081 15.9854 45.4775 15.9854 44.6881C15.9854 43.8775 16.1134 43.1415 16.3694 42.4801C16.6361 41.8081 17.0094 41.2321 17.4894 40.7521C17.9801 40.2721 18.5668 39.9041 19.2494 39.6481C19.9321 39.3815 20.7001 39.2481 21.5534 39.2481C22.4388 39.2481 23.1961 39.3815 23.8254 39.6481C24.4654 39.9148 25.0041 40.2508 25.4414 40.6561L24.8654 41.5041C24.7801 41.6535 24.6628 41.7441 24.5134 41.7761C24.3748 41.8081 24.2254 41.7708 24.0654 41.6641C23.9054 41.5681 23.7401 41.4775 23.5694 41.3921C23.4094 41.2961 23.2281 41.2108 23.0254 41.1361C22.8334 41.0615 22.6148 41.0028 22.3694 40.9601C22.1241 40.9068 21.8361 40.8801 21.5054 40.8801C20.9721 40.8801 20.4921 40.9708 20.0654 41.1521C19.6388 41.3335 19.2708 41.5895 18.9614 41.9201C18.6628 42.2508 18.4334 42.6508 18.2734 43.1201C18.1134 43.5895 18.0334 44.1121 18.0334 44.6881C18.0334 45.3068 18.1188 45.8615 18.2894 46.3521C18.4601 46.8321 18.7054 47.2375 19.0254 47.5681C19.3454 47.8988 19.7294 48.1548 20.1774 48.3361C20.6361 48.5068 21.1428 48.5921 21.6974 48.5921C22.0921 48.5921 22.4441 48.5495 22.7534 48.4641C23.0628 48.3788 23.3668 48.2615 23.6654 48.1121V46.1281H22.3054C22.1881 46.1281 22.0921 46.0961 22.0174 46.0321C21.9428 45.9575 21.9054 45.8668 21.9054 45.7601V44.6721ZM30.9099 42.3201C31.4753 42.3201 31.9873 42.4108 32.4459 42.5921C32.9046 42.7735 33.2939 43.0348 33.6139 43.3761C33.9446 43.7068 34.1953 44.1121 34.3659 44.5921C34.5473 45.0721 34.6379 45.6108 34.6379 46.2081C34.6379 46.8055 34.5473 47.3495 34.3659 47.8401C34.1953 48.3201 33.9446 48.7308 33.6139 49.0721C33.2939 49.4028 32.9046 49.6588 32.4459 49.8401C31.9873 50.0215 31.4753 50.1121 30.9099 50.1121C30.3446 50.1121 29.8326 50.0215 29.3739 49.8401C28.9153 49.6588 28.5206 49.4028 28.1899 49.0721C27.8593 48.7308 27.6033 48.3201 27.4219 47.8401C27.2513 47.3495 27.1659 46.8055 27.1659 46.2081C27.1659 45.6108 27.2513 45.0721 27.4219 44.5921C27.6033 44.1121 27.8593 43.7068 28.1899 43.3761C28.5206 43.0348 28.9153 42.7735 29.3739 42.5921C29.8326 42.4108 30.3446 42.3201 30.9099 42.3201ZM30.9099 48.7521C31.5499 48.7521 32.0193 48.5388 32.3179 48.1121C32.6273 47.6748 32.7819 47.0455 32.7819 46.2241C32.7819 45.3921 32.6273 44.7575 32.3179 44.3201C32.0193 43.8828 31.5499 43.6641 30.9099 43.6641C30.2699 43.6641 29.7953 43.8828 29.4859 44.3201C29.1873 44.7575 29.0379 45.3921 29.0379 46.2241C29.0379 47.0455 29.1873 47.6748 29.4859 48.1121C29.7953 48.5388 30.2699 48.7521 30.9099 48.7521ZM39.5287 42.3201C40.094 42.3201 40.606 42.4108 41.0647 42.5921C41.5233 42.7735 41.9127 43.0348 42.2327 43.3761C42.5633 43.7068 42.814 44.1121 42.9847 44.5921C43.166 45.0721 43.2567 45.6108 43.2567 46.2081C43.2567 46.8055 43.166 47.3495 42.9847 47.8401C42.814 48.3201 42.5633 48.7308 42.2327 49.0721C41.9127 49.4028 41.5233 49.6588 41.0647 49.8401C40.606 50.0215 40.094 50.1121 39.5287 50.1121C38.9633 50.1121 38.4513 50.0215 37.9927 49.8401C37.534 49.6588 37.1393 49.4028 36.8087 49.0721C36.478 48.7308 36.222 48.3201 36.0407 47.8401C35.87 47.3495 35.7847 46.8055 35.7847 46.2081C35.7847 45.6108 35.87 45.0721 36.0407 44.5921C36.222 44.1121 36.478 43.7068 36.8087 43.3761C37.1393 43.0348 37.534 42.7735 37.9927 42.5921C38.4513 42.4108 38.9633 42.3201 39.5287 42.3201ZM39.5287 48.7521C40.1687 48.7521 40.638 48.5388 40.9367 48.1121C41.246 47.6748 41.4007 47.0455 41.4007 46.2241C41.4007 45.3921 41.246 44.7575 40.9367 44.3201C40.638 43.8828 40.1687 43.6641 39.5287 43.6641C38.8887 43.6641 38.414 43.8828 38.1047 44.3201C37.806 44.7575 37.6567 45.3921 37.6567 46.2241C37.6567 47.0455 37.806 47.6748 38.1047 48.1121C38.414 48.5388 38.8887 48.7521 39.5287 48.7521ZM47.5714 46.0641C48.0301 46.0641 48.3661 45.9468 48.5794 45.7121C48.8034 45.4775 48.9154 45.1735 48.9154 44.8001C48.9154 44.4161 48.8034 44.1121 48.5794 43.8881C48.3661 43.6535 48.0301 43.5361 47.5714 43.5361C47.1128 43.5361 46.7714 43.6535 46.5474 43.8881C46.3341 44.1121 46.2274 44.4161 46.2274 44.8001C46.2274 45.1735 46.3394 45.4775 46.5634 45.7121C46.7874 45.9468 47.1234 46.0641 47.5714 46.0641ZM49.6354 50.3521C49.6354 50.1175 49.5394 49.9521 49.3474 49.8561C49.1554 49.7495 48.9101 49.6801 48.6114 49.6481C48.3234 49.6055 47.9981 49.5788 47.6354 49.5681C47.2728 49.5575 46.9208 49.5308 46.5794 49.4881C46.3661 49.6055 46.1901 49.7441 46.0514 49.9041C45.9128 50.0535 45.8434 50.2348 45.8434 50.4481C45.8434 50.7255 45.9821 50.9548 46.2594 51.1361C46.5368 51.3281 47.0114 51.4241 47.6834 51.4241C48.3768 51.4241 48.8728 51.3228 49.1714 51.1201C49.4808 50.9175 49.6354 50.6615 49.6354 50.3521ZM51.4594 42.6881V43.3441C51.4594 43.5468 51.3261 43.6801 51.0594 43.7441L50.3074 43.8561C50.4568 44.0908 50.5314 44.3895 50.5314 44.7521C50.5314 45.1255 50.4568 45.4668 50.3074 45.7761C50.1581 46.0748 49.9501 46.3308 49.6834 46.5441C49.4168 46.7575 49.1021 46.9228 48.7394 47.0401C48.3768 47.1468 47.9874 47.2001 47.5714 47.2001C47.2941 47.2001 47.0221 47.1735 46.7554 47.1201C46.6274 47.1841 46.5314 47.2588 46.4674 47.3441C46.4141 47.4295 46.3874 47.5148 46.3874 47.6001C46.3874 47.8135 46.5101 47.9575 46.7554 48.0321C47.0008 48.0961 47.3048 48.1388 47.6674 48.1601C48.0301 48.1815 48.4248 48.2028 48.8514 48.2241C49.2781 48.2455 49.6728 48.3148 50.0354 48.4321C50.3981 48.5388 50.7021 48.7148 50.9474 48.9601C51.1928 49.2055 51.3154 49.5681 51.3154 50.0481C51.3154 50.3895 51.2301 50.7148 51.0594 51.0241C50.8994 51.3441 50.6648 51.6215 50.3554 51.8561C50.0461 52.1015 49.6621 52.2988 49.2034 52.4481C48.7448 52.5975 48.2274 52.6721 47.6514 52.6721C47.0754 52.6721 46.5741 52.6188 46.1474 52.5121C45.7208 52.4055 45.3688 52.2561 45.0914 52.0641C44.8141 51.8828 44.6061 51.6695 44.4674 51.4241C44.3288 51.1895 44.2594 50.9388 44.2594 50.6721C44.2594 50.3308 44.3714 50.0375 44.5954 49.7921C44.8194 49.5468 45.1181 49.3495 45.4914 49.2001C45.2781 49.0935 45.1074 48.9548 44.9794 48.7841C44.8621 48.6135 44.8034 48.3895 44.8034 48.1121C44.8034 47.8881 44.8834 47.6535 45.0434 47.4081C45.2141 47.1521 45.4648 46.9441 45.7954 46.7841C45.4221 46.5815 45.1234 46.3095 44.8994 45.9681C44.6861 45.6161 44.5794 45.2108 44.5794 44.7521C44.5794 44.3788 44.6541 44.0428 44.8034 43.7441C44.9528 43.4455 45.1608 43.1895 45.4274 42.9761C45.6941 42.7628 46.0088 42.5975 46.3714 42.4801C46.7341 42.3628 47.1341 42.3041 47.5714 42.3041C48.2221 42.3041 48.7874 42.4321 49.2674 42.6881H51.4594ZM54.6059 39.1041V50.0001H52.7819V39.1041H54.6059ZM61.4209 45.3601C61.4209 44.8588 61.2876 44.4375 61.0209 44.0961C60.7543 43.7548 60.3489 43.5841 59.8049 43.5841C59.2716 43.5841 58.8503 43.7388 58.5409 44.0481C58.2423 44.3468 58.0556 44.7841 57.9809 45.3601H61.4209ZM57.9489 46.4321C57.9809 47.1468 58.1729 47.7121 58.5249 48.1281C58.8769 48.5441 59.3729 48.7521 60.0129 48.7521C60.3116 48.7521 60.5676 48.7201 60.7809 48.6561C61.0049 48.5815 61.1969 48.5015 61.3569 48.4161C61.5169 48.3201 61.6556 48.2401 61.7729 48.1761C61.8903 48.1015 62.0023 48.0641 62.1089 48.0641C62.2583 48.0641 62.3756 48.1228 62.4609 48.2401L62.9729 48.8801C62.7809 49.1148 62.5569 49.3121 62.3009 49.4721C62.0556 49.6321 61.7943 49.7601 61.5169 49.8561C61.2503 49.9521 60.9729 50.0161 60.6849 50.0481C60.3969 50.0908 60.1196 50.1121 59.8529 50.1121C59.3196 50.1121 58.8289 50.0268 58.3809 49.8561C57.9329 49.6748 57.5383 49.4135 57.1969 49.0721C56.8663 48.7308 56.6049 48.3095 56.4129 47.8081C56.2316 47.2961 56.1409 46.7095 56.1409 46.0481C56.1409 45.5361 56.2209 45.0561 56.3809 44.6081C56.5516 44.1495 56.7916 43.7548 57.1009 43.4241C57.4103 43.0828 57.7889 42.8161 58.2369 42.6241C58.6956 42.4215 59.2076 42.3201 59.7729 42.3201C60.2529 42.3201 60.6903 42.4001 61.0849 42.5601C61.4903 42.7095 61.8369 42.9335 62.1249 43.2321C62.4236 43.5201 62.6529 43.8775 62.8129 44.3041C62.9836 44.7308 63.0689 45.2161 63.0689 45.7601C63.0689 46.0375 63.0369 46.2188 62.9729 46.3041C62.9196 46.3895 62.8076 46.4321 62.6369 46.4321H57.9489ZM70.7103 44.7201C71.4463 44.7201 71.9903 44.5441 72.3423 44.1921C72.705 43.8295 72.8863 43.3441 72.8863 42.7361C72.8863 42.1281 72.705 41.6641 72.3423 41.3441C71.9903 41.0135 71.4463 40.8481 70.7103 40.8481H69.2063V44.7201H70.7103ZM70.7103 39.3761C71.425 39.3761 72.0436 39.4561 72.5663 39.6161C73.089 39.7761 73.5156 40.0055 73.8463 40.3041C74.1876 40.6028 74.4383 40.9601 74.5983 41.3761C74.769 41.7815 74.8543 42.2348 74.8543 42.7361C74.8543 43.2481 74.769 43.7175 74.5983 44.1441C74.4276 44.5708 74.1663 44.9441 73.8143 45.2641C73.473 45.5735 73.041 45.8135 72.5183 45.9841C72.0063 46.1548 71.4036 46.2401 70.7103 46.2401H69.2063V50.0001H67.2383V39.3761H70.7103ZM78.0653 39.1041V50.0001H76.2413V39.1041H78.0653ZM84.0163 46.7521C83.483 46.7735 83.035 46.8215 82.6723 46.8961C82.3203 46.9601 82.0323 47.0455 81.8083 47.1521C81.595 47.2588 81.4403 47.3868 81.3443 47.5361C81.2483 47.6748 81.2003 47.8295 81.2003 48.0001C81.2003 48.3201 81.2963 48.5548 81.4883 48.7041C81.6803 48.8535 81.931 48.9281 82.2403 48.9281C82.6243 48.9281 82.9496 48.8535 83.2163 48.7041C83.483 48.5548 83.7496 48.3468 84.0163 48.0801V46.7521ZM79.8243 43.4881C80.6776 42.6988 81.723 42.3041 82.9603 42.3041C83.4083 42.3041 83.803 42.3788 84.1443 42.5281C84.4963 42.6668 84.795 42.8641 85.0403 43.1201C85.2856 43.3761 85.4723 43.6855 85.6003 44.0481C85.7283 44.4001 85.7923 44.7895 85.7923 45.2161V50.0001H84.9603C84.779 50.0001 84.6456 49.9788 84.5603 49.9361C84.475 49.8935 84.4003 49.7868 84.3363 49.6161L84.2083 49.0401C83.8136 49.3815 83.4296 49.6481 83.0563 49.8401C82.6936 50.0215 82.235 50.1121 81.6803 50.1121C81.019 50.1121 80.4856 49.9468 80.0803 49.6161C79.675 49.2748 79.4723 48.7575 79.4723 48.0641C79.4723 47.7868 79.547 47.5095 79.6963 47.2321C79.8456 46.9548 80.0963 46.7041 80.4483 46.4801C80.8003 46.2561 81.2643 46.0748 81.8403 45.9361C82.427 45.7868 83.1523 45.7015 84.0163 45.6801V45.2161C84.0163 44.6935 83.9043 44.3095 83.6803 44.0641C83.4563 43.8081 83.1416 43.6801 82.7363 43.6801C82.4483 43.6801 82.203 43.7175 82.0003 43.7921C81.8083 43.8561 81.6376 43.9361 81.4883 44.0321C81.3496 44.1175 81.2163 44.1975 81.0883 44.2721C80.971 44.3361 80.8376 44.3681 80.6883 44.3681C80.5603 44.3681 80.4483 44.3415 80.3523 44.2881C80.267 44.2241 80.203 44.1495 80.1603 44.0641L79.8243 43.4881ZM94.5307 42.4481L90.3867 52.1121C90.3227 52.2295 90.248 52.3201 90.1627 52.3841C90.088 52.4481 89.9653 52.4801 89.7947 52.4801H88.4187L89.8427 49.4561L86.7867 42.4481H88.3707C88.52 42.4481 88.632 42.4801 88.7067 42.5441C88.7813 42.6081 88.8453 42.6828 88.8987 42.7681L90.5147 46.8001C90.568 46.9281 90.6107 47.0561 90.6427 47.1841C90.6853 47.3121 90.7173 47.4455 90.7387 47.5841C90.792 47.4455 90.84 47.3121 90.8827 47.1841C90.936 47.0561 90.9893 46.9228 91.0427 46.7841L92.5627 42.7681C92.6053 42.6721 92.6693 42.5975 92.7547 42.5441C92.8507 42.4801 92.952 42.4481 93.0587 42.4481H94.5307ZM105.283 49.7921C105.283 50.2775 105.201 50.7238 105.036 51.1311C104.88 51.5471 104.663 51.9025 104.386 52.1971C104.109 52.5005 103.779 52.7345 103.398 52.8991C103.017 53.0638 102.605 53.1461 102.163 53.1461H101.37L101.305 52.0151H101.903C102.319 52.0151 102.674 51.9501 102.969 51.8201C103.255 51.6988 103.489 51.5341 103.671 51.3261C103.862 51.1181 104 50.8798 104.087 50.6111C104.174 50.3511 104.217 50.0781 104.217 49.7921V46.2431H105.283V49.7921ZM105.322 44.6441H104.048V43.5261H105.322V44.6441ZM108.065 41.9401H109.131V50.0001H108.065V41.9401Z" fill="white"/>
</svg>
