<svg width="175" height="67" viewBox="0 0 175 67" fill="none" xmlns="http://www.w3.org/2000/svg">
<rect width="175" height="67" rx="3" fill="#030A19"/>
<path d="M155.957 39.467C155.228 41.0839 154.879 41.809 153.94 43.2351C152.633 45.2337 150.782 47.7236 148.493 47.7379C146.461 47.757 145.936 46.4119 143.174 46.4357C140.412 46.4453 139.835 47.7617 137.799 47.7427C135.514 47.7236 133.763 45.477 132.452 43.4879C128.784 37.9025 128.397 31.3535 130.663 27.8715C132.266 25.4007 134.803 23.9507 137.188 23.9507C139.611 23.9507 141.137 25.2814 143.146 25.2814C145.092 25.2814 146.275 23.9459 149.084 23.9459C151.202 23.9459 153.448 25.1002 155.051 27.0988C149.804 29.9702 150.658 37.4636 155.957 39.467ZM146.952 21.7136C147.973 20.4067 148.745 18.556 148.469 16.6719C146.799 16.7864 144.853 17.85 143.713 19.2237C142.683 20.4782 141.829 22.3432 142.163 24.1462C143.98 24.2035 145.86 23.1207 146.952 21.7136Z" fill="#EBEBEB"/>
<path d="M34.9663 24.9996H33.7903V17.1036H34.9663V24.9996ZM44.4852 21.0636C44.4852 21.6556 44.3892 22.1996 44.1972 22.6956C44.0052 23.1916 43.7332 23.6156 43.3812 23.9676C43.0372 24.3196 42.6212 24.5956 42.1332 24.7956C41.6532 24.9876 41.1172 25.0836 40.5252 25.0836C39.9332 25.0836 39.3932 24.9876 38.9052 24.7956C38.4252 24.5956 38.0092 24.3196 37.6572 23.9676C37.3132 23.6156 37.0452 23.1916 36.8532 22.6956C36.6612 22.1996 36.5652 21.6556 36.5652 21.0636C36.5652 20.4716 36.6612 19.9276 36.8532 19.4316C37.0452 18.9356 37.3132 18.5116 37.6572 18.1596C38.0092 17.7996 38.4252 17.5196 38.9052 17.3196C39.3932 17.1196 39.9332 17.0196 40.5252 17.0196C41.1172 17.0196 41.6532 17.1196 42.1332 17.3196C42.6212 17.5196 43.0372 17.7996 43.3812 18.1596C43.7332 18.5116 44.0052 18.9356 44.1972 19.4316C44.3892 19.9276 44.4852 20.4716 44.4852 21.0636ZM43.2732 21.0636C43.2732 20.5836 43.2092 20.1516 43.0812 19.7676C42.9532 19.3836 42.7692 19.0596 42.5292 18.7956C42.2892 18.5316 41.9972 18.3316 41.6532 18.1956C41.3172 18.0516 40.9412 17.9796 40.5252 17.9796C40.1092 17.9796 39.7292 18.0516 39.3852 18.1956C39.0492 18.3316 38.7612 18.5316 38.5212 18.7956C38.2812 19.0596 38.0972 19.3836 37.9692 19.7676C37.8412 20.1516 37.7772 20.5836 37.7772 21.0636C37.7772 21.5436 37.8412 21.9756 37.9692 22.3596C38.0972 22.7356 38.2812 23.0556 38.5212 23.3196C38.7612 23.5756 39.0492 23.7716 39.3852 23.9076C39.7292 24.0436 40.1092 24.1116 40.5252 24.1116C40.9412 24.1116 41.3172 24.0436 41.6532 23.9076C41.9972 23.7716 42.2892 23.5756 42.5292 23.3196C42.7692 23.0556 42.9532 22.7356 43.0812 22.3596C43.2092 21.9756 43.2732 21.5436 43.2732 21.0636ZM50.2177 18.3876C50.1457 18.4916 50.0617 18.5436 49.9657 18.5436C49.8937 18.5436 49.8137 18.5156 49.7257 18.4596C49.6377 18.3956 49.5297 18.3276 49.4017 18.2556C49.2817 18.1756 49.1297 18.1076 48.9457 18.0516C48.7697 17.9876 48.5577 17.9556 48.3097 17.9556C47.8297 17.9556 47.4737 18.0716 47.2417 18.3036C47.0177 18.5356 46.9057 18.8196 46.9057 19.1556C46.9057 19.4436 46.9977 19.6716 47.1817 19.8396C47.3737 19.9996 47.6097 20.1356 47.8897 20.2476C48.1697 20.3516 48.4697 20.4516 48.7897 20.5476C49.1177 20.6436 49.4217 20.7716 49.7017 20.9316C49.9817 21.0916 50.2137 21.3036 50.3977 21.5676C50.5897 21.8236 50.6857 22.1676 50.6857 22.5996C50.6857 22.9516 50.6257 23.2796 50.5057 23.5836C50.3857 23.8876 50.2097 24.1516 49.9777 24.3756C49.7457 24.5996 49.4617 24.7756 49.1257 24.9036C48.7977 25.0236 48.4217 25.0836 47.9977 25.0836C47.4857 25.0836 47.0097 24.9916 46.5697 24.8076C46.1377 24.6156 45.7697 24.3636 45.4657 24.0516L45.8137 23.5236C45.8777 23.4196 45.9657 23.3676 46.0777 23.3676C46.1577 23.3676 46.2457 23.4076 46.3417 23.4876C46.4457 23.5676 46.5697 23.6596 46.7137 23.7636C46.8657 23.8596 47.0457 23.9476 47.2537 24.0276C47.4697 24.1076 47.7297 24.1476 48.0337 24.1476C48.5137 24.1476 48.8897 24.0276 49.1617 23.7876C49.4417 23.5396 49.5817 23.1996 49.5817 22.7676C49.5817 22.5276 49.5257 22.3356 49.4137 22.1916C49.3097 22.0396 49.1697 21.9156 48.9937 21.8196C48.8177 21.7156 48.6137 21.6276 48.3817 21.5556C48.1577 21.4836 47.9297 21.4116 47.6977 21.3396C47.4657 21.2596 47.2337 21.1716 47.0017 21.0756C46.7777 20.9796 46.5777 20.8516 46.4017 20.6916C46.2257 20.5316 46.0817 20.3316 45.9697 20.0916C45.8657 19.8516 45.8137 19.5556 45.8137 19.2036C45.8137 18.9236 45.8697 18.6556 45.9817 18.3996C46.0937 18.1356 46.2537 17.9036 46.4617 17.7036C46.6697 17.4956 46.9257 17.3316 47.2297 17.2116C47.5417 17.0836 47.8977 17.0196 48.2977 17.0196C48.7537 17.0196 49.1657 17.0916 49.5337 17.2356C49.9097 17.3716 50.2377 17.5716 50.5177 17.8356L50.2177 18.3876ZM55.8149 23.5236C56.1829 23.5236 56.4709 23.4476 56.6789 23.2956C56.8869 23.1436 56.9909 22.9516 56.9909 22.7196V21.2196H55.9109C55.5269 21.2196 55.2429 21.3396 55.0589 21.5796C54.8749 21.8196 54.7829 22.1356 54.7829 22.5276C54.7829 22.8956 54.8669 23.1556 55.0349 23.3076C55.2029 23.4516 55.4629 23.5236 55.8149 23.5236ZM57.9389 22.9356C57.9389 23.2396 57.9989 23.4836 58.1189 23.6676C58.2469 23.8516 58.4629 23.9436 58.7669 23.9436H59.0069C59.1029 23.9436 59.1669 23.9876 59.1989 24.0756C59.2389 24.1556 59.2589 24.2836 59.2589 24.4596C59.2589 24.6436 59.2389 24.7796 59.1989 24.8676C59.1669 24.9556 59.1029 24.9996 59.0069 24.9996H58.7669C58.3829 24.9996 58.0589 24.9276 57.7949 24.7836C57.5389 24.6316 57.3509 24.3636 57.2309 23.9796C57.1349 24.0996 57.0189 24.1956 56.8829 24.2676C56.7549 24.3396 56.6189 24.3956 56.4749 24.4356C56.3309 24.4756 56.1829 24.5036 56.0309 24.5196C55.8789 24.5356 55.7389 24.5436 55.6109 24.5436C55.0349 24.5436 54.5949 24.3836 54.2909 24.0636C53.9869 23.7436 53.8349 23.2596 53.8349 22.6116C53.8349 22.3156 53.8749 22.0276 53.9549 21.7476C54.0429 21.4596 54.1709 21.2036 54.3389 20.9796C54.5069 20.7556 54.7149 20.5756 54.9629 20.4396C55.2189 20.3036 55.5149 20.2356 55.8509 20.2356H56.9909V19.4196H57.9389V22.9356ZM64.3937 23.2716C64.5217 23.5276 64.6617 23.7036 64.8137 23.7996C64.9737 23.8956 65.1817 23.9436 65.4377 23.9436H66.1817C66.2857 23.9436 66.3537 23.9876 66.3857 24.0756C66.4257 24.1556 66.4457 24.2836 66.4457 24.4596C66.4457 24.6436 66.4257 24.7796 66.3857 24.8676C66.3537 24.9556 66.2857 24.9996 66.1817 24.9996H65.3777C65.1137 24.9996 64.8897 24.9676 64.7057 24.9036C64.5217 24.8316 64.3657 24.7396 64.2377 24.6276C64.1097 24.5076 64.0017 24.3676 63.9137 24.2076C63.8337 24.0476 63.7617 23.8716 63.6977 23.6796L62.6177 24.3036C62.4097 24.4316 62.2057 24.5396 62.0057 24.6276C61.8057 24.7156 61.5897 24.7876 61.3577 24.8436C61.1337 24.8996 60.8857 24.9396 60.6137 24.9636C60.3417 24.9876 60.0297 24.9996 59.6777 24.9996H59.1617C59.0577 24.9996 58.9897 24.9596 58.9577 24.8796C58.9177 24.7916 58.8977 24.6636 58.8977 24.4956C58.8977 24.3036 58.9177 24.1636 58.9577 24.0756C58.9897 23.9876 59.0577 23.9436 59.1617 23.9436H59.7137C60.0177 23.9436 60.2857 23.9356 60.5177 23.9196C60.7577 23.9036 60.9777 23.8756 61.1777 23.8356C61.3777 23.7956 61.5657 23.7436 61.7417 23.6796C61.9177 23.6076 62.0977 23.5196 62.2817 23.4156L64.0697 22.3836C64.0057 22.2396 63.9417 22.1156 63.8777 22.0116C63.8217 21.8996 63.7457 21.8036 63.6497 21.7236C63.5537 21.6436 63.4377 21.5836 63.3017 21.5436C63.1657 21.5036 62.9937 21.4836 62.7857 21.4836H60.1697L60.2417 20.4276H62.9297C63.1457 20.4276 63.3617 20.4556 63.5777 20.5116C63.8017 20.5676 64.0097 20.6796 64.2017 20.8476C64.4017 21.0156 64.5857 21.2556 64.7537 21.5676C64.9217 21.8796 65.0617 22.2916 65.1737 22.8036L64.3937 23.2716ZM62.7497 19.1196H61.5737V18.0876H62.7497V19.1196ZM66.8113 23.9436C67.4433 23.9436 67.7593 23.6516 67.7593 23.0676V21.5316H68.7433V23.0676C68.7433 23.2276 68.7713 23.3636 68.8273 23.4756C68.8833 23.5876 68.9553 23.6796 69.0433 23.7516C69.1313 23.8156 69.2313 23.8636 69.3433 23.8956C69.4633 23.9276 69.5833 23.9436 69.7033 23.9436C70.3913 23.9436 70.7353 23.6516 70.7353 23.0676V21.5316H71.7193V23.0676C71.7193 23.3956 71.8033 23.6236 71.9713 23.7516C72.1473 23.8796 72.3513 23.9436 72.5833 23.9436C72.8633 23.9436 73.0793 23.8676 73.2313 23.7156C73.3913 23.5636 73.4713 23.3476 73.4713 23.0676V21.5316H74.4553V23.0676C74.4553 23.2276 74.4793 23.3636 74.5273 23.4756C74.5833 23.5876 74.6553 23.6796 74.7433 23.7516C74.8313 23.8156 74.9313 23.8636 75.0433 23.8956C75.1553 23.9276 75.2673 23.9436 75.3793 23.9436H75.6313C75.8073 23.9436 75.8953 24.1156 75.8953 24.4596C75.8953 24.8196 75.8073 24.9996 75.6313 24.9996H75.3793C75.0833 24.9996 74.8073 24.9476 74.5513 24.8436C74.3033 24.7396 74.0953 24.5356 73.9273 24.2316C73.7433 24.5356 73.5273 24.7396 73.2793 24.8436C73.0393 24.9476 72.8073 24.9996 72.5833 24.9996C72.3033 24.9996 72.0433 24.9476 71.8033 24.8436C71.5633 24.7396 71.3593 24.5356 71.1913 24.2316C71.0073 24.5356 70.7833 24.7396 70.5193 24.8436C70.2553 24.9476 69.9833 24.9996 69.7033 24.9996C69.3993 24.9996 69.1153 24.9476 68.8513 24.8436C68.5953 24.7396 68.3833 24.5356 68.2153 24.2316C68.0313 24.5356 67.8153 24.7396 67.5673 24.8436C67.3193 24.9476 67.0553 24.9996 66.7753 24.9996H66.3313C66.2273 24.9996 66.1593 24.9596 66.1273 24.8796C66.0873 24.7916 66.0673 24.6636 66.0673 24.4956C66.0673 24.3036 66.0873 24.1636 66.1273 24.0756C66.1593 23.9876 66.2273 23.9436 66.3313 23.9436H66.8113ZM76.8779 23.9436C77.1659 23.9436 77.3899 23.8676 77.5499 23.7156C77.7179 23.5636 77.8019 23.3476 77.8019 23.0676V21.5316H78.7859V23.1156C78.7859 23.7236 78.6219 24.1916 78.2939 24.5196C77.9739 24.8396 77.5259 24.9996 76.9499 24.9996H75.7859C75.6819 24.9996 75.6139 24.9596 75.5819 24.8796C75.5419 24.7916 75.5219 24.6636 75.5219 24.4956C75.5219 24.3036 75.5419 24.1636 75.5819 24.0756C75.6139 23.9876 75.6819 23.9436 75.7859 23.9436H76.8779ZM78.4499 20.0556H77.2739V19.0236H78.4499V20.0556ZM86.5037 22.0716C86.7117 22.3116 86.8637 22.5516 86.9597 22.7916C87.0557 23.0236 87.1037 23.2516 87.1037 23.4756C87.1037 23.6916 87.0637 23.8916 86.9837 24.0756C86.9037 24.2596 86.7877 24.4196 86.6357 24.5556C86.4917 24.6916 86.3077 24.7996 86.0837 24.8796C85.8597 24.9596 85.6037 24.9996 85.3157 24.9996H82.0277L81.9677 23.9436H85.1717C85.4277 23.9436 85.6237 23.8876 85.7597 23.7756C85.8957 23.6556 85.9637 23.5036 85.9637 23.3196C85.9637 23.1116 85.8717 22.9076 85.6877 22.7076L83.5517 20.2716L84.3197 19.5516L86.5037 22.0716ZM89.5775 26.8596C89.9055 26.8596 90.1935 26.8076 90.4415 26.7036C90.6895 26.6076 90.8935 26.4756 91.0535 26.3076C91.2215 26.1396 91.3495 25.9436 91.4375 25.7196C91.5255 25.4956 91.5775 25.2556 91.5935 24.9996H90.5735C90.1655 24.9996 89.8295 24.9556 89.5655 24.8676C89.3015 24.7796 89.0935 24.6516 88.9415 24.4836C88.7895 24.3156 88.6815 24.1116 88.6175 23.8716C88.5615 23.6236 88.5335 23.3476 88.5335 23.0436C88.5335 22.7396 88.5775 22.4516 88.6655 22.1796C88.7535 21.8996 88.8815 21.6556 89.0495 21.4476C89.2175 21.2396 89.4255 21.0756 89.6735 20.9556C89.9295 20.8276 90.2255 20.7636 90.5615 20.7636C90.8255 20.7636 91.0775 20.8076 91.3175 20.8956C91.5655 20.9836 91.7815 21.1236 91.9655 21.3156C92.1495 21.4996 92.2935 21.7436 92.3975 22.0476C92.5095 22.3516 92.5655 22.7196 92.5655 23.1516V23.9436H93.6335C93.7295 23.9436 93.7935 23.9876 93.8255 24.0756C93.8655 24.1556 93.8855 24.2836 93.8855 24.4596C93.8855 24.6436 93.8655 24.7796 93.8255 24.8676C93.7935 24.9556 93.7295 24.9996 93.6335 24.9996H92.5415C92.5255 25.3916 92.4455 25.7636 92.3015 26.1156C92.1655 26.4676 91.9735 26.7756 91.7255 27.0396C91.4775 27.3036 91.1775 27.5116 90.8255 27.6636C90.4735 27.8236 90.0815 27.9036 89.6495 27.9036H88.4015L88.3295 26.8596H89.5775ZM89.4695 22.9836C89.4695 23.3276 89.5495 23.5756 89.7095 23.7276C89.8775 23.8716 90.1975 23.9436 90.6695 23.9436H91.6175V23.1996C91.6175 22.6956 91.5175 22.3356 91.3175 22.1196C91.1255 21.8956 90.8535 21.7836 90.5015 21.7836C90.1735 21.7836 89.9175 21.8916 89.7335 22.1076C89.5575 22.3156 89.4695 22.6076 89.4695 22.9836ZM94.0883 23.9436C94.7043 23.9436 95.0123 23.6516 95.0123 23.0676V17.5596H95.9963V23.0676C95.9963 23.2276 96.0203 23.3636 96.0683 23.4756C96.1243 23.5876 96.1963 23.6796 96.2843 23.7516C96.3723 23.8156 96.4723 23.8636 96.5843 23.8956C96.7043 23.9276 96.8243 23.9436 96.9443 23.9436H97.1243C97.2283 23.9436 97.2963 23.9876 97.3283 24.0756C97.3683 24.1556 97.3883 24.2836 97.3883 24.4596C97.3883 24.6436 97.3683 24.7796 97.3283 24.8676C97.2963 24.9556 97.2283 24.9996 97.1243 24.9996H96.9083C96.6203 24.9996 96.3483 24.9476 96.0923 24.8436C95.8443 24.7396 95.6363 24.5356 95.4683 24.2316C95.2843 24.5356 95.0723 24.7396 94.8323 24.8436C94.5923 24.9476 94.3443 24.9996 94.0883 24.9996H93.7883C93.6843 24.9996 93.6163 24.9596 93.5843 24.8796C93.5443 24.7916 93.5243 24.6636 93.5243 24.4956C93.5243 24.3036 93.5443 24.1636 93.5843 24.0756C93.6163 23.9876 93.6843 23.9436 93.7883 23.9436H94.0883ZM98.3701 23.9436C98.6581 23.9436 98.8821 23.8676 99.0421 23.7156C99.2101 23.5636 99.2941 23.3476 99.2941 23.0676V21.5316H100.278V23.1156C100.278 23.7236 100.114 24.1916 99.7861 24.5196C99.4661 24.8396 99.0181 24.9996 98.4421 24.9996H97.2781C97.1741 24.9996 97.1061 24.9596 97.0741 24.8796C97.0341 24.7916 97.0141 24.6636 97.0141 24.4956C97.0141 24.3036 97.0341 24.1636 97.0741 24.0756C97.1061 23.9876 97.1741 23.9436 97.2781 23.9436H98.3701ZM99.9421 20.0556H98.7661V19.0236H99.9421V20.0556ZM101.888 17.5596H102.872V24.9996H101.888V17.5596ZM108.816 22.0716C109.024 22.3116 109.176 22.5516 109.272 22.7916C109.368 23.0236 109.416 23.2516 109.416 23.4756C109.416 23.6916 109.376 23.8916 109.296 24.0756C109.216 24.2596 109.1 24.4196 108.948 24.5556C108.804 24.6916 108.62 24.7996 108.396 24.8796C108.172 24.9596 107.916 24.9996 107.628 24.9996H104.34L104.28 23.9436H107.484C107.74 23.9436 107.936 23.8876 108.072 23.7756C108.208 23.6556 108.276 23.5036 108.276 23.3196C108.276 23.1116 108.184 22.9076 108 22.7076L105.864 20.2716L106.632 19.5516L108.816 22.0716Z" fill="white"/>
<path d="M23.7433 45.9996L22.6233 42.8956C22.5166 42.6503 22.4046 42.3783 22.2873 42.0796C22.1806 41.7703 22.0846 41.461 21.9993 41.1516C21.914 41.4716 21.818 41.781 21.7113 42.0796C21.6046 42.3783 21.498 42.6503 21.3913 42.8956L20.2713 45.9996H23.7433ZM27.2153 49.9996H25.6793C25.498 49.9996 25.338 49.9143 25.1993 49.7436C25.0606 49.573 24.9646 49.4023 24.9113 49.2316L24.2233 47.3436H19.8073L19.1353 49.2316C19.0606 49.3916 18.954 49.5623 18.8153 49.7436C18.6766 49.9143 18.5166 49.9996 18.3353 49.9996H16.7993L21.0073 39.3756H23.0073L27.2153 49.9996ZM29.9993 48.0636C30.2126 48.3303 30.4366 48.517 30.6713 48.6236C30.906 48.7196 31.1726 48.7676 31.4713 48.7676C32.026 48.7676 32.4633 48.5543 32.7833 48.1276C33.114 47.701 33.2793 47.045 33.2793 46.1596C33.2793 45.2636 33.1406 44.629 32.8633 44.2556C32.586 43.8716 32.202 43.6796 31.7113 43.6796C31.338 43.6796 31.0126 43.765 30.7353 43.9356C30.4686 44.0956 30.2233 44.325 29.9993 44.6236V48.0636ZM29.8873 43.5036C30.1966 43.141 30.5486 42.853 30.9433 42.6396C31.338 42.4156 31.802 42.3036 32.3353 42.3036C32.7513 42.3036 33.13 42.389 33.4713 42.5596C33.8233 42.7303 34.122 42.981 34.3673 43.3116C34.6126 43.6423 34.8046 44.0476 34.9433 44.5276C35.082 44.997 35.1513 45.541 35.1513 46.1596C35.1513 46.725 35.0713 47.2476 34.9113 47.7276C34.762 48.2076 34.5433 48.6236 34.2553 48.9756C33.978 49.3276 33.6366 49.605 33.2313 49.8076C32.8366 50.0103 32.3886 50.1116 31.8873 50.1116C31.4606 50.1116 31.098 50.0476 30.7993 49.9196C30.5006 49.7916 30.234 49.605 29.9993 49.3596V52.4796H28.1753V42.4476H29.2793C29.5246 42.4476 29.6793 42.549 29.7433 42.7516L29.8873 43.5036ZM38.5399 48.0636C38.7533 48.3303 38.9773 48.517 39.2119 48.6236C39.4466 48.7196 39.7133 48.7676 40.0119 48.7676C40.5666 48.7676 41.0039 48.5543 41.3239 48.1276C41.6546 47.701 41.8199 47.045 41.8199 46.1596C41.8199 45.2636 41.6813 44.629 41.4039 44.2556C41.1266 43.8716 40.7426 43.6796 40.2519 43.6796C39.8786 43.6796 39.5533 43.765 39.2759 43.9356C39.0093 44.0956 38.7639 44.325 38.5399 44.6236V48.0636ZM38.4279 43.5036C38.7373 43.141 39.0893 42.853 39.4839 42.6396C39.8786 42.4156 40.3426 42.3036 40.8759 42.3036C41.2919 42.3036 41.6706 42.389 42.0119 42.5596C42.3639 42.7303 42.6626 42.981 42.9079 43.3116C43.1533 43.6423 43.3453 44.0476 43.4839 44.5276C43.6226 44.997 43.6919 45.541 43.6919 46.1596C43.6919 46.725 43.6119 47.2476 43.4519 47.7276C43.3026 48.2076 43.0839 48.6236 42.7959 48.9756C42.5186 49.3276 42.1773 49.605 41.7719 49.8076C41.3773 50.0103 40.9293 50.1116 40.4279 50.1116C40.0013 50.1116 39.6386 50.0476 39.3399 49.9196C39.0413 49.7916 38.7746 49.605 38.5399 49.3596V52.4796H36.7159V42.4476H37.8199C38.0653 42.4476 38.2199 42.549 38.2839 42.7516L38.4279 43.5036ZM47.0965 39.1036V49.9996H45.2725V39.1036H47.0965ZM53.9115 45.3596C53.9115 44.8583 53.7782 44.437 53.5115 44.0956C53.2449 43.7543 52.8395 43.5836 52.2955 43.5836C51.7622 43.5836 51.3409 43.7383 51.0315 44.0476C50.7329 44.3463 50.5462 44.7836 50.4715 45.3596H53.9115ZM50.4395 46.4316C50.4715 47.1463 50.6635 47.7116 51.0155 48.1276C51.3675 48.5436 51.8635 48.7516 52.5035 48.7516C52.8022 48.7516 53.0582 48.7196 53.2715 48.6556C53.4955 48.581 53.6875 48.501 53.8475 48.4156C54.0075 48.3196 54.1462 48.2396 54.2635 48.1756C54.3809 48.101 54.4929 48.0636 54.5995 48.0636C54.7489 48.0636 54.8662 48.1223 54.9515 48.2396L55.4635 48.8796C55.2715 49.1143 55.0475 49.3116 54.7915 49.4716C54.5462 49.6316 54.2849 49.7596 54.0075 49.8556C53.7409 49.9516 53.4635 50.0156 53.1755 50.0476C52.8875 50.0903 52.6102 50.1116 52.3435 50.1116C51.8102 50.1116 51.3195 50.0263 50.8715 49.8556C50.4235 49.6743 50.0289 49.413 49.6875 49.0716C49.3569 48.7303 49.0955 48.309 48.9035 47.8076C48.7222 47.2956 48.6315 46.709 48.6315 46.0476C48.6315 45.5356 48.7115 45.0556 48.8715 44.6076C49.0422 44.149 49.2822 43.7543 49.5915 43.4236C49.9009 43.0823 50.2795 42.8156 50.7275 42.6236C51.1862 42.421 51.6982 42.3196 52.2635 42.3196C52.7435 42.3196 53.1809 42.3996 53.5755 42.5596C53.9809 42.709 54.3275 42.933 54.6155 43.2316C54.9142 43.5196 55.1435 43.877 55.3035 44.3036C55.4742 44.7303 55.5595 45.2156 55.5595 45.7596C55.5595 46.037 55.5275 46.2183 55.4635 46.3036C55.4102 46.389 55.2982 46.4316 55.1275 46.4316H50.4395ZM65.4249 41.2956C65.2969 41.477 65.1529 41.5676 64.9929 41.5676C64.8863 41.5676 64.7689 41.5303 64.6409 41.4556C64.5236 41.381 64.3796 41.2956 64.2089 41.1996C64.0383 41.1036 63.8409 41.0183 63.6169 40.9436C63.3929 40.869 63.1263 40.8316 62.8169 40.8316C62.2623 40.8316 61.8463 40.9596 61.5689 41.2156C61.3023 41.4716 61.1689 41.8023 61.1689 42.2076C61.1689 42.549 61.2916 42.8156 61.5369 43.0076C61.7823 43.1996 62.0863 43.365 62.4489 43.5036C62.8116 43.6423 63.2063 43.7756 63.6329 43.9036C64.0703 44.021 64.4703 44.1916 64.8329 44.4156C65.1956 44.629 65.4996 44.917 65.7449 45.2796C65.9903 45.6316 66.1129 46.101 66.1129 46.6876C66.1129 47.1676 66.0276 47.621 65.8569 48.0476C65.6969 48.4636 65.4569 48.8263 65.1369 49.1356C64.8169 49.4343 64.4276 49.6743 63.9689 49.8556C63.5103 50.0263 62.9876 50.1116 62.4009 50.1116C61.7183 50.1116 61.0623 49.9836 60.4329 49.7276C59.8036 49.4716 59.2863 49.1356 58.8809 48.7196L59.4729 47.8076C59.5263 47.7436 59.5903 47.6903 59.6649 47.6476C59.7396 47.5943 59.8196 47.5676 59.9049 47.5676C60.0223 47.5676 60.1503 47.621 60.2889 47.7276C60.4383 47.8236 60.6089 47.9356 60.8009 48.0636C60.9929 48.181 61.2223 48.293 61.4889 48.3996C61.7663 48.4956 62.0916 48.5436 62.4649 48.5436C63.0196 48.5436 63.4516 48.4103 63.7609 48.1436C64.0809 47.8663 64.2409 47.477 64.2409 46.9756C64.2409 46.5916 64.1183 46.2983 63.8729 46.0956C63.6383 45.893 63.3343 45.7276 62.9609 45.5996C62.5983 45.461 62.2036 45.333 61.7769 45.2156C61.3609 45.0983 60.9663 44.933 60.5929 44.7196C60.2303 44.4956 59.9263 44.197 59.6809 43.8236C59.4463 43.4503 59.3289 42.9383 59.3289 42.2876C59.3289 41.9036 59.4036 41.5303 59.5529 41.1676C59.7129 40.7943 59.9423 40.469 60.2409 40.1916C60.5396 39.9036 60.9023 39.6743 61.3289 39.5036C61.7663 39.333 62.2623 39.2476 62.8169 39.2476C63.4463 39.2476 64.0223 39.3436 64.5449 39.5356C65.0783 39.7276 65.5369 40.005 65.9209 40.3676L65.4249 41.2956ZM70.181 50.1116C69.5304 50.1116 69.029 49.9303 68.677 49.5676C68.3357 49.205 68.165 48.7036 68.165 48.0636V43.7916H67.381C67.2744 43.7916 67.1837 43.7596 67.109 43.6956C67.045 43.6316 67.013 43.541 67.013 43.4236V42.7196L68.261 42.5436L68.629 40.4156C68.661 40.2343 68.7944 40.1436 69.029 40.1436H69.973V42.5436H71.973V43.7916H69.973V47.9356C69.973 48.181 70.0264 48.373 70.133 48.5116C70.2504 48.6396 70.4157 48.7036 70.629 48.7036C70.853 48.7036 71.013 48.661 71.109 48.5756C71.2157 48.4903 71.3117 48.4476 71.397 48.4476C71.4824 48.4476 71.5677 48.501 71.653 48.6076L72.181 49.4396C71.9144 49.653 71.605 49.8183 71.253 49.9356C70.9117 50.053 70.5544 50.1116 70.181 50.1116ZM76.6474 42.3196C77.2128 42.3196 77.7248 42.4103 78.1834 42.5916C78.6421 42.773 79.0314 43.0343 79.3514 43.3756C79.6821 43.7063 79.9328 44.1116 80.1034 44.5916C80.2848 45.0716 80.3754 45.6103 80.3754 46.2076C80.3754 46.805 80.2848 47.349 80.1034 47.8396C79.9328 48.3196 79.6821 48.7303 79.3514 49.0716C79.0314 49.4023 78.6421 49.6583 78.1834 49.8396C77.7248 50.021 77.2128 50.1116 76.6474 50.1116C76.0821 50.1116 75.5701 50.021 75.1114 49.8396C74.6528 49.6583 74.2581 49.4023 73.9274 49.0716C73.5968 48.7303 73.3408 48.3196 73.1594 47.8396C72.9888 47.349 72.9034 46.805 72.9034 46.2076C72.9034 45.6103 72.9888 45.0716 73.1594 44.5916C73.3408 44.1116 73.5968 43.7063 73.9274 43.3756C74.2581 43.0343 74.6528 42.773 75.1114 42.5916C75.5701 42.4103 76.0821 42.3196 76.6474 42.3196ZM76.6474 48.7516C77.2874 48.7516 77.7568 48.5383 78.0554 48.1116C78.3648 47.6743 78.5194 47.045 78.5194 46.2236C78.5194 45.3916 78.3648 44.757 78.0554 44.3196C77.7568 43.8823 77.2874 43.6636 76.6474 43.6636C76.0074 43.6636 75.5328 43.8823 75.2234 44.3196C74.9248 44.757 74.7754 45.3916 74.7754 46.2236C74.7754 47.045 74.9248 47.6743 75.2234 48.1116C75.5328 48.5383 76.0074 48.7516 76.6474 48.7516ZM83.6342 43.8236C83.8582 43.333 84.1355 42.9596 84.4662 42.7036C84.7968 42.437 85.1862 42.3036 85.6342 42.3036C85.9862 42.3036 86.2688 42.373 86.4822 42.5116L86.3542 43.8396C86.3115 43.9996 86.2155 44.0796 86.0662 44.0796C85.9915 44.0796 85.8848 44.069 85.7462 44.0476C85.6075 44.0156 85.4635 43.9996 85.3142 43.9996C84.9088 43.9996 84.5835 44.1116 84.3382 44.3356C84.1035 44.5596 83.9062 44.885 83.7462 45.3116V49.9996H81.9222V42.4476H82.9942C83.1755 42.4476 83.3035 42.4796 83.3782 42.5436C83.4528 42.6076 83.5008 42.7143 83.5222 42.8636L83.6342 43.8236ZM92.4522 45.3596C92.4522 44.8583 92.3188 44.437 92.0522 44.0956C91.7855 43.7543 91.3802 43.5836 90.8362 43.5836C90.3028 43.5836 89.8815 43.7383 89.5722 44.0476C89.2735 44.3463 89.0868 44.7836 89.0122 45.3596H92.4522ZM88.9802 46.4316C89.0122 47.1463 89.2042 47.7116 89.5562 48.1276C89.9082 48.5436 90.4042 48.7516 91.0442 48.7516C91.3428 48.7516 91.5988 48.7196 91.8122 48.6556C92.0362 48.581 92.2282 48.501 92.3882 48.4156C92.5482 48.3196 92.6868 48.2396 92.8042 48.1756C92.9215 48.101 93.0335 48.0636 93.1402 48.0636C93.2895 48.0636 93.4068 48.1223 93.4922 48.2396L94.0042 48.8796C93.8122 49.1143 93.5882 49.3116 93.3322 49.4716C93.0868 49.6316 92.8255 49.7596 92.5482 49.8556C92.2815 49.9516 92.0042 50.0156 91.7162 50.0476C91.4282 50.0903 91.1508 50.1116 90.8842 50.1116C90.3508 50.1116 89.8602 50.0263 89.4122 49.8556C88.9642 49.6743 88.5695 49.413 88.2282 49.0716C87.8975 48.7303 87.6362 48.309 87.4442 47.8076C87.2628 47.2956 87.1722 46.709 87.1722 46.0476C87.1722 45.5356 87.2522 45.0556 87.4122 44.6076C87.5828 44.149 87.8228 43.7543 88.1322 43.4236C88.4415 43.0823 88.8202 42.8156 89.2682 42.6236C89.7268 42.421 90.2388 42.3196 90.8042 42.3196C91.2842 42.3196 91.7215 42.3996 92.1162 42.5596C92.5215 42.709 92.8682 42.933 93.1562 43.2316C93.4548 43.5196 93.6842 43.877 93.8442 44.3036C94.0148 44.7303 94.1002 45.2156 94.1002 45.7596C94.1002 46.037 94.0682 46.2183 94.0042 46.3036C93.9508 46.389 93.8388 46.4316 93.6682 46.4316H88.9802ZM105.283 49.7916C105.283 50.277 105.201 50.7233 105.036 51.1306C104.88 51.5466 104.663 51.902 104.386 52.1966C104.109 52.5 103.779 52.734 103.398 52.8986C103.017 53.0633 102.605 53.1456 102.163 53.1456H101.37L101.305 52.0146H101.903C102.319 52.0146 102.674 51.9496 102.969 51.8196C103.255 51.6983 103.489 51.5336 103.671 51.3256C103.862 51.1176 104 50.8793 104.087 50.6106C104.174 50.3506 104.217 50.0776 104.217 49.7916V46.2426H105.283V49.7916ZM105.322 44.6436H104.048V43.5256H105.322V44.6436ZM108.065 41.9396H109.131V49.9996H108.065V41.9396Z" fill="white"/>
</svg>
