<svg width="39" height="39" viewBox="0 0 39 39" fill="none" xmlns="http://www.w3.org/2000/svg">
<circle cx="19.5" cy="19.5" r="19.5" transform="rotate(-90 19.5 19.5)" fill="#F1F1F1"/>
<path d="M25.5289 9.5766L28.7063 12.6905C28.8836 12.8643 28.9722 13.092 28.9722 13.3196C28.9722 13.5472 28.8836 13.7749 28.7063 13.9486L25.5289 17.0626C25.1742 17.4101 24.5998 17.4101 24.2451 17.0626C23.8905 16.715 23.8905 16.152 24.2451 15.8045L25.8728 14.2093L15.3548 14.2093C14.853 14.2093 14.447 13.8114 14.447 13.3196C14.447 12.8278 14.853 12.4299 15.3548 12.4299L25.8728 12.4299L24.2451 10.8347C23.8905 10.4872 23.8905 9.92414 24.2451 9.5766C24.5998 9.22906 25.1742 9.22906 25.5289 9.5766ZM10.8157 13.3196C10.8157 12.8278 10.4096 12.4299 9.90783 12.4299C9.40604 12.4299 9 12.8278 9 13.3196C9 13.8114 9.40604 14.2093 9.90783 14.2093C10.4096 14.2093 10.8157 13.8114 10.8157 13.3196ZM13.5391 13.3196C13.5391 12.8278 13.1331 12.4299 12.6313 12.4299C12.1295 12.4299 11.7235 12.8278 11.7235 13.3196C11.7235 13.8114 12.1295 14.2093 12.6313 14.2093C13.1331 14.2093 13.5391 13.8114 13.5391 13.3196Z" fill="#4B4B4B"/>
<path d="M9.26597 23.3673C8.91134 23.7148 8.91134 24.2779 9.26597 24.6254L12.4434 27.7393C12.798 28.0869 13.3725 28.0869 13.7271 27.7393C14.0817 27.3918 14.0817 26.8288 13.7271 26.4813L12.0994 24.8861L22.6174 24.8861C23.1192 24.8861 23.5253 24.4881 23.5253 23.9964C23.5253 23.5046 23.1192 23.1067 22.6174 23.1067L12.0994 23.1067L13.7271 21.5114C13.9044 21.3377 13.9931 21.11 13.9931 20.8824C13.9931 20.6548 13.9044 20.4271 13.7271 20.2534C13.3725 19.9058 12.798 19.9058 12.4434 20.2534L9.26597 23.3673ZM27.1566 23.9964C27.1566 24.4881 27.5626 24.8861 28.0644 24.8861C28.5662 24.8861 28.9722 24.4881 28.9722 23.9964C28.9722 23.5046 28.5662 23.1067 28.0644 23.1067C27.5626 23.1067 27.1566 23.5046 27.1566 23.9964ZM24.4331 23.9964C24.4331 24.4881 24.8391 24.8861 25.3409 24.8861C25.8427 24.8861 26.2487 24.4881 26.2487 23.9964C26.2487 23.5046 25.8427 23.1067 25.3409 23.1067C24.8391 23.1067 24.4331 23.5046 24.4331 23.9964Z" fill="#2F55D4"/>
</svg>
